<svg width="50" height="50" viewBox="0 0 50 50" fill="none" xmlns="http://www.w3.org/2000/svg">
<circle cx="25" cy="25" r="25" fill="url(#paint0_linear_119_2210)"/>
<path d="M24.4993 27.5832V29.6665C22.8417 29.6665 21.252 30.325 20.0799 31.4971C18.9078 32.6692 18.2493 34.2589 18.2493 35.9165H16.166C16.166 33.7064 17.044 31.5868 18.6068 30.0239C20.1696 28.4611 22.2892 27.5832 24.4993 27.5832ZM24.4993 26.5415C21.0462 26.5415 18.2493 23.7446 18.2493 20.2915C18.2493 16.8384 21.0462 14.0415 24.4993 14.0415C27.9525 14.0415 30.7493 16.8384 30.7493 20.2915C30.7493 23.7446 27.9525 26.5415 24.4993 26.5415ZM24.4993 24.4582C26.8014 24.4582 28.666 22.5936 28.666 20.2915C28.666 17.9894 26.8014 16.1248 24.4993 16.1248C22.1973 16.1248 20.3327 17.9894 20.3327 20.2915C20.3327 22.5936 22.1973 24.4582 24.4993 24.4582ZM34.3389 33.8665L35.9056 35.4332L34.4327 36.9061L32.866 35.3394C31.9924 35.8545 30.9609 36.0333 29.9649 35.8423C28.9689 35.6513 28.0768 35.1036 27.4557 34.3018C26.8347 33.5001 26.5274 32.4993 26.5914 31.4872C26.6554 30.4751 27.0863 29.521 27.8034 28.8039C28.5206 28.0868 29.4746 27.6559 30.4867 27.5919C31.4989 27.5278 32.4996 27.8352 33.3013 28.4562C34.1031 29.0773 34.6508 29.9694 34.8418 30.9654C35.0328 31.9614 34.854 32.9929 34.3389 33.8665ZM30.7493 33.8332C31.3019 33.8332 31.8318 33.6137 32.2225 33.223C32.6132 32.8323 32.8327 32.3024 32.8327 31.7498C32.8327 31.1973 32.6132 30.6674 32.2225 30.2767C31.8318 29.886 31.3019 29.6665 30.7493 29.6665C30.1968 29.6665 29.6669 29.886 29.2762 30.2767C28.8855 30.6674 28.666 31.1973 28.666 31.7498C28.666 32.3024 28.8855 32.8323 29.2762 33.223C29.6669 33.6137 30.1968 33.8332 30.7493 33.8332Z" fill="white"/>
<defs>
<linearGradient id="paint0_linear_119_2210" x1="25" y1="0" x2="25" y2="50" gradientUnits="userSpaceOnUse">
<stop stop-color="#F19EC4"/>
<stop offset="1" stop-color="#DF62A0"/>
</linearGradient>
</defs>
</svg>
