<svg width="50" height="50" viewBox="0 0 50 50" fill="none" xmlns="http://www.w3.org/2000/svg">
<circle cx="25" cy="25" r="25" fill="url(#paint0_linear_119_2203)"/>
<path d="M32.8333 35.9168H16.1667C15.8904 35.9168 15.6254 35.8071 15.4301 35.6117C15.2347 35.4164 15.125 35.1514 15.125 34.8752V16.1252C15.125 15.8489 15.2347 15.5839 15.4301 15.3886C15.6254 15.1932 15.8904 15.0835 16.1667 15.0835H32.8333C33.1096 15.0835 33.3746 15.1932 33.5699 15.3886C33.7653 15.5839 33.875 15.8489 33.875 16.1252V34.8752C33.875 35.1514 33.7653 35.4164 33.5699 35.6117C33.3746 35.8071 33.1096 35.9168 32.8333 35.9168ZM31.7917 33.8335V17.1668H17.2083V33.8335H31.7917ZM21.375 19.2502V21.3335C21.375 22.1623 21.7042 22.9572 22.2903 23.5432C22.8763 24.1293 23.6712 24.4585 24.5 24.4585C25.3288 24.4585 26.1237 24.1293 26.7097 23.5432C27.2958 22.9572 27.625 22.1623 27.625 21.3335V19.2502H29.7083V21.3335C29.7083 22.7148 29.1596 24.0396 28.1828 25.0163C27.2061 25.9931 25.8813 26.5418 24.5 26.5418C23.1187 26.5418 21.7939 25.9931 20.8172 25.0163C19.8404 24.0396 19.2917 22.7148 19.2917 21.3335V19.2502H21.375Z" fill="white"/>
<defs>
<linearGradient id="paint0_linear_119_2203" x1="25" y1="0" x2="25" y2="50" gradientUnits="userSpaceOnUse">
<stop stop-color="#F19EC4"/>
<stop offset="1" stop-color="#DF62A0"/>
</linearGradient>
</defs>
</svg>
