<svg width="50" height="50" viewBox="0 0 50 50" fill="none" xmlns="http://www.w3.org/2000/svg">
<circle cx="25" cy="25" r="25" fill="url(#paint0_linear_119_2195)"/>
<path d="M18.2083 25.0208C18.2083 25.3469 18.6885 25.9146 19.8021 26.4719C21.2438 27.1927 23.2885 27.625 25.5 27.625C27.7115 27.625 29.7562 27.1927 31.1979 26.4719C32.3115 25.9146 32.7917 25.3469 32.7917 25.0208V22.7594C31.0729 23.8219 28.4448 24.5 25.5 24.5C22.5552 24.5 19.9271 23.8208 18.2083 22.7594V25.0208ZM32.7917 27.9677C31.0729 29.0302 28.4448 29.7083 25.5 29.7083C22.5552 29.7083 19.9271 29.0292 18.2083 27.9677V30.2292C18.2083 30.5552 18.6885 31.1229 19.8021 31.6802C21.2438 32.401 23.2885 32.8333 25.5 32.8333C27.7115 32.8333 29.7562 32.401 31.1979 31.6802C32.3115 31.1229 32.7917 30.5552 32.7917 30.2292V27.9677ZM16.125 30.2292V19.8125C16.125 17.224 20.3229 15.125 25.5 15.125C30.6771 15.125 34.875 17.224 34.875 19.8125V30.2292C34.875 32.8177 30.6771 34.9167 25.5 34.9167C20.3229 34.9167 16.125 32.8177 16.125 30.2292ZM25.5 22.4167C27.7115 22.4167 29.7562 21.9844 31.1979 21.2635C32.3115 20.7063 32.7917 20.1385 32.7917 19.8125C32.7917 19.4865 32.3115 18.9188 31.1979 18.3615C29.7562 17.6406 27.7115 17.2083 25.5 17.2083C23.2885 17.2083 21.2438 17.6406 19.8021 18.3615C18.6885 18.9188 18.2083 19.4865 18.2083 19.8125C18.2083 20.1385 18.6885 20.7063 19.8021 21.2635C21.2438 21.9844 23.2885 22.4167 25.5 22.4167Z" fill="white"/>
<defs>
<linearGradient id="paint0_linear_119_2195" x1="25" y1="0" x2="25" y2="50" gradientUnits="userSpaceOnUse">
<stop stop-color="#F19EC4"/>
<stop offset="1" stop-color="#DF62A0"/>
</linearGradient>
</defs>
</svg>
