<svg width="35" height="36" viewBox="0 0 35 36" fill="none" xmlns="http://www.w3.org/2000/svg">
<path d="M24.793 4.37736H30.6263C31.0131 4.37736 31.384 4.53101 31.6575 4.8045C31.931 5.07799 32.0846 5.44892 32.0846 5.83569V29.169C32.0846 29.5558 31.931 29.9267 31.6575 30.2002C31.384 30.4737 31.0131 30.6274 30.6263 30.6274H4.3763C3.98953 30.6274 3.6186 30.4737 3.3451 30.2002C3.07161 29.9267 2.91797 29.5558 2.91797 29.169V5.83569C2.91797 5.44892 3.07161 5.07799 3.3451 4.8045C3.6186 4.53101 3.98953 4.37736 4.3763 4.37736H10.2096V1.46069H13.1263V4.37736H21.8763V1.46069H24.793V4.37736ZM29.168 16.044H5.83464V27.7107H29.168V16.044ZM21.8763 7.29403H13.1263V10.2107H10.2096V7.29403H5.83464V13.1274H29.168V7.29403H24.793V10.2107H21.8763V7.29403ZM8.7513 18.9607H11.668V21.8774H8.7513V18.9607ZM16.043 18.9607H18.9596V21.8774H16.043V18.9607ZM23.3346 18.9607H26.2513V21.8774H23.3346V18.9607Z" fill="black"/>
</svg>
