<svg width="34" height="35" viewBox="0 0 34 35" fill="none" xmlns="http://www.w3.org/2000/svg">
<path d="M28.334 4.375L31.1673 10.2083V29.1667C31.1673 29.5534 31.0181 29.9244 30.7524 30.1979C30.4867 30.4714 30.1264 30.625 29.7507 30.625H4.25065C3.87493 30.625 3.51459 30.4714 3.24892 30.1979C2.98324 29.9244 2.83398 29.5534 2.83398 29.1667V10.2142L5.66732 4.375H28.334ZM28.334 13.125H5.66732V27.7083H28.334V13.125ZM17.0007 14.5833L22.6673 20.4167H18.4173V26.25H15.584V20.4167H11.334L17.0007 14.5833ZM26.583 7.29167H7.41832L6.00307 10.2083H27.9997L26.583 7.29167Z" fill="white"/>
</svg>
