<svg width="35" height="35" viewBox="0 0 35 35" fill="none" xmlns="http://www.w3.org/2000/svg">
<path d="M24.7917 2.91675V5.83341H29.1769C29.976 5.83341 30.625 6.48237 30.625 7.28154V30.6353C30.625 31.4345 29.976 32.0834 29.1769 32.0834H5.82313C5.02396 32.0834 4.375 31.4345 4.375 30.6353V7.28154C4.375 6.48237 5.02396 5.83341 5.82313 5.83341H10.2083V2.91675H24.7917ZM10.2083 8.75008H7.29167V29.1667H27.7083V8.75008H24.7917V11.6667H10.2083V8.75008ZM13.125 23.3334V26.2501H10.2083V23.3334H13.125ZM13.125 18.9584V21.8751H10.2083V18.9584H13.125ZM13.125 14.5834V17.5001H10.2083V14.5834H13.125ZM21.875 5.83341H13.125V8.75008H21.875V5.83341Z" fill="black"/>
</svg>
