<svg width="25" height="25" viewBox="0 0 25 25" fill="none" xmlns="http://www.w3.org/2000/svg">
<path d="M17.7109 3.12484H21.8776C22.1539 3.12484 22.4188 3.23458 22.6142 3.42993C22.8095 3.62528 22.9193 3.89024 22.9193 4.1665V20.8332C22.9193 21.1094 22.8095 21.3744 22.6142 21.5697C22.4188 21.7651 22.1539 21.8748 21.8776 21.8748H3.1276C2.85134 21.8748 2.58639 21.7651 2.39103 21.5697C2.19568 21.3744 2.08594 21.1094 2.08594 20.8332V4.1665C2.08594 3.89024 2.19568 3.62528 2.39103 3.42993C2.58639 3.23458 2.85134 3.12484 3.1276 3.12484H7.29427V1.0415H9.37761V3.12484H15.6276V1.0415H17.7109V3.12484ZM20.8359 11.4582H4.16927V19.7915H20.8359V11.4582ZM15.6276 5.20817H9.37761V7.2915H7.29427V5.20817H4.16927V9.37484H20.8359V5.20817H17.7109V7.2915H15.6276V5.20817ZM6.2526 13.5415H8.33594V15.6248H6.2526V13.5415ZM11.4609 13.5415H13.5443V15.6248H11.4609V13.5415ZM16.6693 13.5415H18.7526V15.6248H16.6693V13.5415Z" fill="white"/>
</svg>
