<svg width="38" height="10" viewBox="0 0 38 10" fill="none" xmlns="http://www.w3.org/2000/svg">
<path d="M19.6767 8.81758L19.598 8.3238L19.6767 8.81758ZM0.508282 3.38991C0.458229 3.11835 0.637806 2.85762 0.909374 2.80757L5.33484 1.99192C5.6064 1.94187 5.86713 2.12145 5.91718 2.39301C5.96723 2.66458 5.78766 2.92531 5.51609 2.97536L1.58234 3.70038L2.30737 7.63412C2.35742 7.90569 2.17784 8.16642 1.90627 8.21647C1.6347 8.26652 1.37398 8.08695 1.32393 7.81538L0.508282 3.38991ZM37 1C37.3232 1.38147 37.3231 1.38158 37.3229 1.38171C37.3229 1.38179 37.3227 1.38195 37.3225 1.3821C37.3221 1.3824 37.3217 1.3828 37.3211 1.38329C37.3199 1.38428 37.3183 1.38564 37.3162 1.38737C37.3121 1.39083 37.3062 1.39578 37.2985 1.40217C37.2832 1.41494 37.2608 1.43347 37.2315 1.45744C37.1729 1.50537 37.0866 1.57503 36.9737 1.66377C36.7481 1.84122 36.4164 2.09501 35.9878 2.40383C35.1307 3.02132 33.8851 3.85963 32.3251 4.74773C29.2081 6.52218 24.8193 8.5048 19.7553 9.31135L19.598 8.3238C24.5057 7.54214 28.7786 5.61596 31.8303 3.87868C33.3547 3.01091 34.5702 2.19262 35.4032 1.59248C35.8196 1.29248 36.1401 1.04719 36.3555 0.877773C36.4632 0.793069 36.5446 0.727347 36.5985 0.683253C36.6255 0.661206 36.6456 0.644569 36.6587 0.633671C36.6652 0.628222 36.67 0.624208 36.673 0.621671C36.6745 0.620402 36.6756 0.619502 36.6762 0.618977C36.6765 0.618715 36.6767 0.618546 36.6768 0.618471C36.6769 0.618433 36.6769 0.618448 36.6769 0.618429C36.6768 0.618468 36.6768 0.61853 37 1ZM19.7553 9.31135C15.2826 10.0237 10.5061 8.59877 6.89165 7.03465C5.07617 6.24901 3.5357 5.42021 2.44871 4.78768C1.90494 4.47125 1.47392 4.20351 1.1779 4.01423C1.02988 3.91959 0.915554 3.84452 0.837723 3.79276C0.798805 3.76688 0.769001 3.74683 0.748665 3.73306C0.738495 3.72617 0.730694 3.72086 0.7253 3.71717C0.722603 3.71533 0.720509 3.7139 0.719021 3.71288C0.718277 3.71237 0.717686 3.71196 0.717247 3.71166C0.717026 3.71151 0.716812 3.71136 0.716702 3.71128C0.716526 3.71116 0.716385 3.71107 1 3.29929C1.28362 2.88751 1.28355 2.88746 1.28353 2.88745C1.28357 2.88748 1.28358 2.88749 1.28367 2.88755C1.28384 2.88766 1.28416 2.88788 1.28464 2.88821C1.28558 2.88886 1.28714 2.88992 1.28928 2.89139C1.29358 2.89433 1.30028 2.89889 1.30932 2.90501C1.32741 2.91726 1.3549 2.93577 1.39145 2.96007C1.46455 3.00868 1.57386 3.08047 1.7166 3.17174C2.00212 3.3543 2.42119 3.61468 2.95166 3.92337C4.01318 4.54107 5.51781 5.35051 7.2888 6.1169C10.8473 7.65681 15.4091 8.99098 19.598 8.3238L19.7553 9.31135Z" fill="url(#paint0_linear_119_2391)"/>
<defs>
<linearGradient id="paint0_linear_119_2391" x1="35.92" y1="-0.5" x2="0.785157" y2="2.36874" gradientUnits="userSpaceOnUse">
<stop stop-color="#FF416C" stop-opacity="0"/>
<stop offset="0.305414" stop-color="#FF4265" stop-opacity="0.10205"/>
<stop offset="1" stop-color="#FF4B2B"/>
</linearGradient>
</defs>
</svg>
