<svg width="42" height="40" viewBox="0 0 42 40" fill="none" xmlns="http://www.w3.org/2000/svg">
<path d="M41.4374 20.6473C41.4088 19.4854 41.3229 18.3045 41.0652 17.1711C40.6452 15.3426 39.6524 13.8378 37.7624 13.2378C35.6911 12.5806 33.8393 13.1997 32.1688 14.4854C32.0829 14.5521 32.0065 14.6854 32.0065 14.7806C31.997 16.0568 31.997 17.3235 31.997 18.5902C32.6079 18.4664 33.152 18.3045 33.7056 18.2568C34.4502 18.1902 35.147 18.3426 35.5765 19.0473C36.0061 19.7425 36.2733 20.514 36.2829 21.3235C36.3115 24.4378 36.3115 27.5521 36.2829 30.6568C36.2733 32.0283 35.5479 32.9426 34.2688 33.3806C34.1638 33.4187 34.0111 33.5711 34.0111 33.6664C34.0015 35.1997 34.0206 36.733 34.0302 38.2664C34.0302 38.5235 34.1352 38.6378 34.4215 38.6378C37.142 38.6664 39.872 36.7902 40.817 34.2092C41.4661 32.4378 41.5424 30.5902 41.5329 28.733C41.5138 26.0568 41.5138 23.3521 41.4374 20.6473ZM36.0538 6.73303C37.3806 6.59017 38.717 6.43779 40.0438 6.29493C40.2633 6.27588 40.3779 6.21874 40.3779 5.97112C40.3683 4.42826 40.3779 2.87588 40.3779 1.25684C38.2111 1.50445 36.1206 1.73303 34.0397 1.98065C31.6533 2.25684 29.3147 2.55207 26.9283 2.80922C26.852 3.79017 26.7756 4.81874 26.7088 5.81874C26.6706 6.44731 26.642 7.07588 26.6133 7.74255C27.9402 7.59969 29.2097 7.46636 30.4793 7.33303C32.3406 7.13303 34.1924 6.93303 36.0538 6.73303ZM30.7561 22.5711C30.8229 19.914 30.8802 17.2568 30.9565 14.6092C30.9947 13.0949 31.0615 11.5806 31.0997 10.0568C31.1093 9.60922 31.0997 9.1616 31.0997 8.69493C30.8802 8.69493 30.7274 8.68541 30.5843 8.69493C29.4006 8.75207 28.217 8.83779 27.0238 8.86636C26.6038 8.87588 26.5083 9.03779 26.4988 9.39969C26.4797 10.2378 26.4415 11.0664 26.4129 11.9045C26.2888 15.1902 26.1647 18.4854 26.0502 21.7711C26.0311 22.2092 26.0502 22.6473 26.0502 23.1616C27.5583 23.114 28.9997 23.0664 30.4506 23.0187C30.7656 23.0092 30.7561 22.7997 30.7561 22.5711ZM32.6079 33.333C31.472 33.2092 30.8802 32.114 30.842 31.0473C30.7943 29.7616 30.7656 28.4664 30.7465 27.1806C30.7465 26.8568 30.6511 26.7235 30.2979 26.733C29.0379 26.7711 27.7683 26.7997 26.4988 26.8092C26.1552 26.8092 26.0979 26.9521 26.1074 27.2473C26.1265 28.0664 26.117 28.8854 26.1456 29.7045C26.1838 30.9616 26.1456 32.2378 26.3365 33.4759C26.5943 35.0568 27.3674 36.4568 28.7133 37.3806C29.9065 38.1997 31.3097 38.5235 32.8465 38.7045C32.8465 36.9521 32.8465 35.2759 32.837 33.5902C32.8465 33.5045 32.7033 33.3426 32.6079 33.333ZM1.0888 19.6092H5.20289C5.20289 18.3902 5.1838 17.2283 5.20289 16.0664C5.25062 13.6949 5.9188 12.9616 8.25744 12.6759C8.30516 12.6664 8.34335 12.6187 8.4388 12.5616V8.68541C5.65153 8.37112 2.58744 10.3235 1.58516 13.0378C0.773801 15.1806 1.20335 17.3997 1.0888 19.6092ZM7.74198 29.7045C5.90926 29.6283 5.36516 29.0473 5.32698 27.2092C5.29835 25.8092 5.32698 24.4092 5.29835 23.0092C5.2888 22.4187 5.22198 21.8187 5.17426 21.2187H1.10789C1.10789 23.3902 1.00289 25.4759 1.12698 27.5521C1.39426 31.8092 3.67562 34.1997 7.68471 34.6854C8.24789 34.7521 8.45789 34.5997 8.4388 34.0378C8.41016 32.8283 8.41971 31.6092 8.4388 30.3997C8.44835 29.8759 8.25744 29.7235 7.74198 29.7045ZM17.9652 14.6187C17.9747 15.4854 17.9747 16.3616 17.9843 17.2283C17.9843 17.8187 17.9843 18.4092 17.9843 18.9902H22.6615C22.6615 16.9806 22.7474 15.0759 22.6329 13.1902C22.5374 11.5045 21.7165 10.1235 20.2561 9.19017C18.7574 8.22826 17.087 8.08541 15.3688 8.22826C15.2065 8.23779 14.9488 8.49493 14.9393 8.64731C14.9011 9.87588 14.9202 11.114 14.9202 12.3806C15.2829 12.3997 15.5406 12.4187 15.7983 12.4283C17.3638 12.4854 17.9365 13.0664 17.9652 14.6187ZM9.28835 38.7902H13.9274V4.06636C12.3333 4.23779 10.8156 4.39969 9.28835 4.5616V38.7902ZM22.6997 20.6473C21.3347 20.6473 20.0747 20.6664 18.8147 20.6378C18.2229 20.6187 18.032 20.8283 18.032 21.4187C18.0511 23.0854 17.9938 24.7425 18.0033 26.4092C18.0129 28.533 17.192 29.6854 15.1588 29.8854C15.092 29.8949 15.0252 29.9521 14.9679 29.9806V34.3235C18.9674 34.5426 21.5256 32.4187 22.337 29.3426C23.1102 26.4854 22.5279 23.5806 22.6997 20.6473Z" fill="url(#paint0_linear_119_130)"/>
<defs>
<linearGradient id="paint0_linear_119_130" x1="3.57444" y1="20.0224" x2="41.8257" y2="20.0224" gradientUnits="userSpaceOnUse">
<stop offset="0.0344" stop-color="#273580"/>
<stop offset="0.2149" stop-color="#46317C"/>
<stop offset="0.6071" stop-color="#942673"/>
<stop offset="0.8615" stop-color="#CA1E6D"/>
</linearGradient>
</defs>
</svg>
