<svg width="50" height="50" viewBox="0 0 50 50" fill="none" xmlns="http://www.w3.org/2000/svg">
<g clip-path="url(#clip0_119_159)">
<path fill-rule="evenodd" clip-rule="evenodd" d="M24.9987 43.4757C14.827 43.4757 6.55078 35.1984 6.55078 24.9742C6.55078 14.8011 14.827 6.52539 24.9987 6.52539C35.17 6.52539 43.4462 14.8011 43.4462 24.9742C43.4462 34.8204 35.6021 43.4757 24.9987 43.4757ZM24.9987 43.1588C15.0013 43.1588 6.86723 35.0236 6.86723 24.9747C6.86723 14.976 15.0013 6.84232 24.9987 6.84232C34.9955 6.84232 43.1298 14.976 43.1298 24.9747C43.1298 34.6521 35.4204 43.1588 24.9987 43.1588Z" fill="black"/>
<path fill-rule="evenodd" clip-rule="evenodd" d="M25.0003 49.7334C38.6245 49.7334 49.7333 38.6762 49.7333 24.9993C49.7333 11.3228 38.6245 0.265625 25.0003 0.265625C11.3745 0.265625 0.265625 11.3228 0.265625 24.9993C0.265625 38.6762 11.3745 49.7334 25.0003 49.7334ZM25.0002 45.7182C36.4127 45.7182 45.7182 36.4561 45.7182 24.9993C45.7182 13.543 36.4127 4.28086 25.0002 4.28086C13.5862 4.28086 4.28076 13.543 4.28076 24.9993C4.28076 36.4561 13.5862 45.7182 25.0002 45.7182Z" fill="#008000"/>
<path fill-rule="evenodd" clip-rule="evenodd" d="M25.0009 50C38.7715 50 50 38.8239 50 24.9998C50 11.1761 38.7715 0 25.0009 0C11.2286 0 0 11.1761 0 24.9998C0 38.8239 11.2286 50 25.0009 50ZM25.0009 49.7339C38.625 49.7339 49.7338 38.6767 49.7338 24.9998C49.7338 11.3233 38.625 0.266114 25.0009 0.266114C11.3751 0.266114 0.266223 11.3233 0.266223 24.9998C0.266223 38.6767 11.3751 49.7339 25.0009 49.7339Z" fill="#FFCB00"/>
<path fill-rule="evenodd" clip-rule="evenodd" d="M15.2066 44.4131L14.9009 44.934L14.8511 44.9041C14.8904 44.7658 14.9086 44.6597 14.9029 44.5867C14.8969 44.512 14.8703 44.4415 14.8241 44.3721C14.7997 44.3331 14.7417 44.2887 14.6522 44.236L14.5116 44.1517L13.6423 45.6352C13.5846 45.7343 13.5532 45.7979 13.5511 45.8288C13.5476 45.8599 13.5571 45.8931 13.5758 45.9302C13.5962 45.9688 13.6331 46.0032 13.6876 46.0346L13.7514 46.072L13.7205 46.124L12.7213 45.5333L12.751 45.483L12.8158 45.5192C12.8708 45.5513 12.9213 45.5685 12.9667 45.5685C12.9991 45.5695 13.0314 45.5589 13.0646 45.5333C13.0883 45.5182 13.1273 45.4613 13.1852 45.364L14.0543 43.8812L13.9162 43.8004C13.7873 43.7252 13.6774 43.6961 13.5867 43.717C13.4614 43.7452 13.3447 43.8236 13.2412 43.9532L13.1877 43.9205L13.4933 43.4004L15.2066 44.4131ZM12.4751 42.7127C11.952 42.0833 11.3745 42.4495 11.3745 42.2415C11.4283 41.9794 11.1651 41.7165 10.8504 41.8219C10.7984 41.8732 10.7456 41.4547 10.5366 41.193C10.2745 40.9308 9.74905 40.7208 9.22718 40.7749C8.91228 40.7749 8.64999 40.7749 8.64999 40.7749C8.4397 40.7208 8.07324 40.7208 7.96911 40.616H7.91673C7.60266 40.5636 7.34048 40.4069 7.13031 40.1457C6.92072 39.8303 6.81612 39.1492 7.28801 38.9382C7.55007 38.8867 8.02017 39.1492 7.86451 39.2024C7.81167 39.2024 7.70693 39.2024 7.60268 39.3058C7.39167 39.5166 7.55008 39.9343 7.86451 39.9879C8.28319 40.0395 8.23119 39.5678 8.2832 39.7246C8.33628 39.9343 8.59833 40.1456 8.85992 40.2505C9.12103 40.3546 9.38383 40.3013 9.38383 40.3013C9.38383 40.3013 9.27895 40.1967 9.01617 39.8838C8.70197 39.6209 8.75556 39.4639 8.4397 38.9911C7.96913 38.258 7.55008 38.5203 7.60268 38.3633C7.6535 38.1013 7.39166 37.7859 7.13031 37.8387C7.07794 37.8387 7.07796 37.4204 6.92074 37.1586C6.76305 36.7912 6.39481 36.5282 5.97756 36.4239C5.5578 36.3719 5.2447 36.2147 5.2447 36.2147C5.08653 36.1627 4.92907 36.1103 4.77185 36.005L4.667 35.9517C4.40731 35.8473 4.0917 35.5849 3.9859 35.3248C3.8294 34.9571 3.88199 34.276 4.40731 34.1709C4.71972 34.1709 5.08653 34.4853 4.92908 34.4853C4.87802 34.4853 4.82493 34.5378 4.667 34.5884C4.40731 34.6945 4.4585 35.1662 4.71973 35.2182C5.08653 35.3248 5.19138 35.0094 5.19138 35.1662C5.19138 35.3761 5.40108 35.6903 5.61018 35.8473C5.87272 35.9517 6.13453 36.005 6.13453 36.005C6.13453 36.005 6.03087 35.8991 5.82069 35.5329C5.61016 35.1662 5.71527 35.0094 5.50653 34.4853C5.29623 33.9086 4.87802 33.6468 4.92908 33.5944C5.14009 33.2255 4.92907 32.9133 4.61488 32.8608C4.61488 32.8608 4.66701 32.7036 4.51075 32.3371C4.35306 31.9701 4.14277 31.6018 3.72432 31.4455C3.35765 31.2885 2.99059 31.0265 2.99059 31.0265C2.88527 30.9219 2.67628 30.7635 2.57059 30.6593L2.51956 30.6072C2.30974 30.397 2.15262 30.1354 2.09978 29.8215C2.04789 29.4545 2.25675 28.8259 2.78005 28.8771C3.09543 28.8771 3.41083 29.3493 3.19994 29.2964C3.14912 29.2452 3.09544 29.2452 2.93811 29.2964C2.6232 29.4546 2.57061 29.8215 2.83267 30.03C3.14913 30.241 3.35764 29.8215 3.30432 30.03C3.25243 30.241 3.35763 30.5552 3.56579 30.7634C3.72431 30.9219 3.9859 31.0265 3.9859 31.0265C3.9859 31.0265 3.93353 30.9219 3.82939 30.501C3.72431 30.0826 3.82938 29.9792 3.77713 29.4015C3.72429 28.5636 3.19995 28.7742 3.30432 28.4588C3.56579 27.9344 3.14912 27.8836 3.19994 27.8294C3.19994 27.7787 3.30432 27.4108 3.35764 27.0963C3.35764 26.7296 3.19993 26.3626 2.88527 26.1534C2.78006 26.0497 2.36255 25.6286 2.36255 25.6286C2.25675 25.5242 1.99543 25.2086 1.88974 24.9999L1.8369 24.9467C1.68099 24.6854 1.57555 24.3712 1.62792 24.057C1.681 23.6903 2.04792 23.1131 2.51956 23.2706C2.78008 23.376 2.88528 23.8468 2.83267 23.7958C2.78007 23.7958 2.67628 23.6903 2.46646 23.742C2.20368 23.742 2.04789 24.162 2.25675 24.4243C2.51953 24.7381 2.83268 24.3712 2.72902 24.5286C2.6763 24.7381 2.67629 25.1049 2.83267 25.3148C2.93812 25.5242 3.14913 25.7339 3.14913 25.7339C3.14913 25.7339 3.14913 25.5759 3.14913 25.1576C3.09545 24.6854 3.25243 24.6332 3.35764 24.057C3.46225 23.2706 3.0444 23.1131 3.14913 23.062C3.41084 22.8513 3.41084 22.4833 3.14913 22.3793C3.09545 22.3276 3.41084 22.0658 3.5145 21.6994C3.5658 21.3322 3.51449 21.0175 3.25242 20.6521C3.04439 20.2843 2.83267 19.9702 2.83267 19.9702C2.78007 19.8115 2.6232 19.4993 2.57059 19.3409V19.2881C2.46646 18.9737 2.46646 18.6596 2.57059 18.3451C2.729 17.9789 3.19992 17.5589 3.61932 17.8212C3.88198 17.9789 3.882 18.5014 3.82939 18.3984C3.77715 18.3451 3.72432 18.2924 3.5145 18.2403C3.25244 18.1875 2.9906 18.5547 3.09545 18.871C3.30431 19.2368 3.67099 18.9738 3.56579 19.0784C3.41083 19.2368 3.35761 19.6032 3.41081 19.8648C3.46222 20.1257 3.67101 20.3367 3.67101 20.3367C3.67101 20.3367 3.67097 20.1787 3.77713 19.7592C3.88198 19.3409 3.98589 19.3409 4.2482 18.7623C4.56203 18.0301 4.14274 17.7157 4.29995 17.7674C4.56202 17.7674 4.667 17.2456 4.45849 17.0869C4.40731 17.0869 4.77186 16.826 4.98156 16.5102C5.14009 16.1967 5.19138 15.8293 4.98156 15.4624C4.82494 15.0956 4.71973 14.5202 4.71973 14.5202C4.66701 14.3099 4.61487 14.1529 4.667 13.9952V13.943C4.61487 13.6283 4.71973 13.3145 4.87802 13.052C5.08652 12.7375 5.71525 12.4238 6.03087 12.7902C6.24069 13.0521 6.18762 13.5763 6.08241 13.4191C6.03088 13.367 6.03087 13.2616 5.8727 13.209C5.5578 13.0521 5.2447 13.367 5.29624 13.6812C5.34813 14.1012 5.82071 13.8899 5.66266 13.9952C5.45439 14.1529 5.3481 14.4674 5.3481 14.7292C5.3481 14.9908 5.45437 15.2528 5.45437 15.2528C5.45437 15.2528 5.50651 15.0956 5.71526 14.7292C5.87271 14.362 6.03089 14.362 6.39483 13.8899C6.92075 13.209 6.39484 12.8948 6.71081 12.8948C7.23566 12.8416 6.97335 12.3199 7.0256 12.3199C7.07796 12.2661 7.39166 12.1084 7.65349 11.8473C7.91674 11.5836 8.02016 11.2701 7.96911 10.851C7.8645 10.4324 7.81166 9.8035 7.81166 9.8035C7.81166 9.64557 7.81167 9.54048 7.86451 9.38422V9.33173C7.91675 9.01683 8.17859 8.70264 8.4397 8.49092C8.702 8.23183 9.43595 8.0739 9.69825 8.49092C9.80286 8.7562 9.5408 9.27937 9.48749 9.12168C9.48749 9.06943 9.48746 8.9653 9.33251 8.86057C9.0689 8.65063 8.702 8.86056 8.64999 9.22783C8.64999 9.59332 9.12104 9.54049 8.96477 9.59333C8.75555 9.69889 8.54527 9.96071 8.4397 10.2225C8.38757 10.4837 8.4397 10.7462 8.4397 10.7462C8.4397 10.7462 8.54524 10.6423 8.80755 10.3282C9.0689 9.96071 9.2272 10.0136 9.69825 9.64557C10.3283 9.17381 10.1182 8.75619 10.2226 8.75619C10.8504 8.86056 10.6417 8.33691 10.6945 8.28371C10.7456 8.28371 11.113 8.23182 11.4283 8.02081C11.6894 7.81159 11.8988 7.55071 11.952 7.12977C11.952 6.7112 12.371 5.66318 12.371 5.66318V5.61082C12.5273 5.29686 12.7378 5.08645 12.9996 4.92876C13.3139 4.7725 13.9955 4.7725 14.1005 5.24533C14.2049 5.55845 13.8907 5.97821 13.8907 5.82028C13.8371 5.76851 13.8907 5.61082 13.7858 5.50716C13.5758 5.24533 13.1573 5.34876 13.0514 5.71543C12.8942 6.08187 13.3663 6.08187 13.2084 6.13519C12.9996 6.18708 12.7378 6.39534 12.5793 6.60683C12.4752 6.86794 12.4751 7.12977 12.4751 7.12977C12.4751 7.12977 12.5793 7.02528 12.8942 6.81677C13.2611 6.55399 13.3663 6.60683 13.9425 6.39535C14.6766 6.02962 14.3623 5.55845 14.6767 5.66318C15.1996 5.82027 15.1996 5.29687 15.2529 5.29687C15.305 5.29687 15.6712 5.29686 15.9863 5.19201C16.3528 5.08645 16.6151 4.82557 16.7202 4.45866C16.8777 4.03854 17.0872 3.46289 17.0872 3.46289C17.1921 3.30496 17.296 3.19987 17.4006 3.09514V3.04313C17.6631 2.83331 17.925 2.78058 18.2406 2.83331C18.5545 2.88591 18.8164 3.04313 18.6589 3.41135C18.6076 3.61915 18.396 3.67164 18.396 3.67164C18.396 3.67164 18.396 3.46288 18.0824 3.41135C18.0824 3.41135 17.8734 3.41136 17.768 3.56631C17.6116 3.77779 17.8734 3.88264 17.768 3.93298C17.1921 4.24789 17.1921 4.7725 17.2449 4.71966C17.8734 4.09139 18.8164 3.98654 18.8164 3.98654C19.0269 4.24789 19.4444 4.196 19.4444 3.8298H19.8113C20.2837 3.77779 20.7032 3.7778 21.2792 3.51502C21.2792 3.51502 20.0204 3.41135 19.3402 2.93875C18.8164 2.62313 18.3445 2.36131 17.9771 2.4151C17.715 2.4151 17.4537 2.52019 17.2449 2.72846C17.1921 2.78059 17.0339 2.57125 16.7742 2.62313C16.4577 2.72846 16.5097 3.04313 16.4059 3.04313C16.1963 3.09513 16.0393 3.04313 15.6193 3.30495C15.2529 3.5663 15.2529 3.67163 14.729 3.77779C14.2569 3.88264 14.0479 3.98654 14.0479 3.98654C14.0479 3.98654 14.2049 4.14327 14.4148 4.14327C14.5706 4.196 14.8864 4.24789 15.1495 4.09139C15.1495 4.09139 15.0959 4.35274 15.3575 4.45866C15.5668 4.51138 15.7245 4.40582 15.8291 4.24789C15.8814 4.196 15.8814 3.98654 15.7245 3.88265C15.5669 3.7778 15.9863 3.72495 16.1441 3.77779C16.4059 3.88264 16.4059 4.14328 16.3004 4.35274C16.2489 4.45866 16.0912 4.66669 15.8291 4.77249C15.5668 4.87865 15.1495 4.87865 14.8865 4.77249C14.6236 4.61552 14.3097 4.56255 13.8371 4.45866C13.4186 4.29918 12.9473 4.40582 12.5793 4.71966C12.2138 4.92876 12.2138 5.03432 12.0567 5.34875L12.0041 5.40052C11.952 5.45384 11.7945 5.19201 11.532 5.34875C11.2706 5.50716 11.3745 5.76851 11.2706 5.82028C11.0614 5.97821 10.9559 5.92549 10.5904 6.23885C10.2745 6.60683 10.3283 6.71121 9.85392 6.92126C9.38382 7.1838 9.22718 7.28747 9.22718 7.28747C9.22718 7.28747 9.43594 7.39231 9.64588 7.39231C9.80285 7.39231 10.0656 7.34077 10.3283 7.12977C10.3283 7.12977 10.3786 7.44409 10.6417 7.44409C10.9035 7.44409 11.0614 7.1838 11.0614 7.02527C11.0614 6.86794 11.0086 6.86795 10.7984 6.81677C10.6417 6.76357 10.9035 6.50412 11.2184 6.60683C11.3745 6.65812 11.532 6.92126 11.532 7.07812C11.4802 7.23629 11.3745 7.49788 11.1651 7.65414C10.9035 7.81159 10.5366 7.91692 10.2226 7.86515C9.96006 7.81159 9.64587 7.81159 9.12102 7.81159C8.70198 7.81159 8.23118 7.96976 8.02017 8.28371C7.75811 8.54554 7.6535 8.65063 7.60268 9.06943L7.55009 9.12168C7.55009 9.22784 7.34048 9.06943 7.13031 9.27937C6.86919 9.48812 7.07794 9.69889 6.97333 9.8035C6.81612 9.96071 6.65747 9.96071 6.4492 10.3793C6.18761 10.7462 6.24069 10.851 5.8727 11.2178C5.5065 11.5325 5.3481 11.6901 5.3481 11.6901C5.3481 11.6901 5.61019 11.742 5.76788 11.6901C5.92498 11.6369 6.18763 11.5325 6.39483 11.2701C6.39483 11.2701 6.44921 11.5836 6.76304 11.5325C6.97334 11.4799 7.13031 11.3234 7.13031 11.062C7.07794 10.9034 6.97334 10.851 6.76304 10.851C6.60618 10.851 6.92072 10.5363 7.13031 10.5363C7.39166 10.5363 7.49725 10.7462 7.55009 10.9565C7.55009 11.1135 7.49723 11.3751 7.34049 11.5836C7.13031 11.7943 6.76303 12.0038 6.50346 12.0038C6.18761 12.0038 5.8727 12.1084 5.40105 12.2143C4.98154 12.3199 4.51073 12.7375 4.40731 13.052C4.24819 13.4191 4.2482 13.6283 4.2482 13.8899V13.943C3.7243 13.943 3.56577 14.2573 3.77713 14.6754C3.77713 14.6754 3.51447 14.8871 3.41081 15.3579C3.3043 15.8293 3.35763 15.8819 3.09545 16.3011C2.78007 16.7748 2.67628 16.9295 2.67628 16.9295C2.67628 16.9295 2.93811 16.9295 3.09545 16.8261C3.25242 16.7748 3.46225 16.5637 3.56579 16.2496C3.56579 16.2496 3.72431 16.4591 3.9859 16.4058C4.19631 16.3011 4.29997 16.0912 4.2482 15.8819C4.19631 15.7242 3.93351 15.62 3.77713 15.6719C3.72429 15.7242 3.93353 15.4118 4.0917 15.3579C4.29997 15.3057 4.56204 15.4624 4.61488 15.6719C4.66701 15.8293 4.71973 16.0911 4.56203 16.3534C4.40732 16.6157 4.14275 16.8261 3.82939 16.9295C3.56578 17.0346 3.30432 17.1927 2.83267 17.4012C2.46647 17.6122 2.09978 18.134 2.09978 18.4496C2.04789 18.8161 2.09979 19.0784 2.20369 19.3409C1.68099 19.445 1.57555 19.8648 1.88974 20.1257C1.88974 20.1257 1.73358 20.4406 1.68098 20.9659C1.68098 21.4366 1.78537 21.4886 1.62792 21.9614C1.41798 22.4328 1.41795 22.6423 1.41795 22.6423C1.41795 22.6423 1.62791 22.5894 1.78536 22.4328C1.88974 22.3276 2.04789 22.1166 2.09978 21.8035C2.09978 21.8035 2.30974 22.0658 2.51956 21.855C2.72902 21.6994 2.72902 21.3837 2.62322 21.2261C2.46648 21.1231 2.36256 21.1231 2.25675 21.1744C2.09978 21.2796 2.25676 20.8585 2.41445 20.755C2.6232 20.7038 2.83267 20.755 2.93811 20.9127C3.09544 21.1231 3.09544 21.3322 3.04438 21.5934C2.99059 21.9083 2.78008 22.2215 2.51956 22.3793C2.25678 22.5368 2.04789 22.7462 1.68098 23.1131C1.36631 23.376 1.10449 23.9505 1.20886 24.3188C1.26123 24.6332 1.26121 24.7917 1.41795 24.9999V25.0516C1.10447 25.367 1.10449 25.7339 1.47022 25.9432C1.47022 25.9432 1.3137 26.3099 1.41795 26.7822C1.52375 27.254 1.62791 27.3051 1.57554 27.7788C1.52377 28.3009 1.52379 28.5116 1.52379 28.5116C1.52379 28.5116 1.7336 28.4068 1.8369 28.1967C1.94282 28.0919 2.04792 27.8294 1.99543 27.5169C1.99543 27.5169 2.25676 27.7252 2.46646 27.4634C2.5706 27.254 2.51953 26.9382 2.36255 26.8871C2.15262 26.7823 2.15265 26.7823 1.99543 26.8871C1.83691 27.0423 1.88975 26.6242 2.04792 26.4681C2.15265 26.3099 2.46648 26.3626 2.62322 26.4681C2.72902 26.5712 2.88527 26.7822 2.88527 27.0963C2.88527 27.4108 2.78005 27.7787 2.57059 27.9872C2.36256 28.1967 2.2037 28.4588 1.88974 28.8771C1.681 29.193 1.57556 29.8215 1.73361 30.1354C1.88975 30.501 1.94282 30.6593 2.20369 30.817V30.8697C2.25677 30.9219 1.94283 31.0793 1.99543 31.3407C2.09981 31.6552 2.36256 31.6552 2.41445 31.7599C2.46646 31.9701 2.36256 32.0748 2.57059 32.4926C2.78005 32.9656 2.88527 32.9656 2.99059 33.4365C3.04439 33.9617 3.09545 34.1709 3.09545 34.1709C3.09545 34.1709 3.30432 34.0134 3.35764 33.8035C3.35764 33.6468 3.46225 33.3845 3.30432 33.0707C3.30432 33.0707 3.5658 33.1742 3.72432 32.9133C3.77716 32.6512 3.671 32.4926 3.5145 32.388C3.41084 32.2845 3.19995 32.388 3.14913 32.4926C3.14913 32.599 2.93812 32.3371 3.14913 32.0213C3.25243 31.8662 3.5145 31.8122 3.67101 31.9176C3.77716 32.0213 3.98589 32.179 4.0917 32.4413C4.14275 32.7546 4.0917 33.1226 3.9859 33.3845C3.8294 33.6468 3.72431 33.9617 3.56579 34.4327C3.41083 34.8 3.46226 35.429 3.72432 35.6903C3.93355 36.005 4.0917 36.1627 4.35305 36.2663L4.40731 36.3191C4.45849 36.3719 4.14274 36.5282 4.29995 36.7912C4.4073 37.0537 4.66701 37.0009 4.71973 37.1054C4.82494 37.2627 4.77186 37.4204 5.08653 37.7859C5.40108 38.1551 5.50651 38.1013 5.71526 38.5714C5.92496 39.0437 6.03087 39.254 6.03087 39.254C6.03087 39.254 6.13453 39.0437 6.13453 38.8352C6.18761 38.6768 6.13453 38.4166 5.97756 38.1551C5.97756 38.1551 6.24072 38.1551 6.29201 37.8387C6.29201 37.6293 6.13453 37.4723 5.97756 37.4204C5.87271 37.4204 5.71527 37.4723 5.66266 37.6293C5.61018 37.7341 5.4544 37.4204 5.50653 37.21C5.55782 37.0537 5.8207 36.8955 6.03087 36.9482C6.18761 37.0009 6.39482 37.1054 6.55453 37.3674C6.71079 37.6293 6.76306 37.9964 6.6575 38.258C6.6062 38.5714 6.60617 38.8867 6.50346 39.4092C6.4492 39.7777 6.71079 40.3546 6.97333 40.616C7.288 40.8259 7.44485 40.9308 7.75809 40.9834V41.0349C7.65348 41.244 7.81166 41.5599 7.81166 41.5599C8.07325 41.7684 8.23117 41.6121 8.33626 41.7165C8.493 41.8732 8.38755 41.9266 8.75554 42.2415C9.17386 42.5023 9.27898 42.4495 9.5408 42.8704C9.85392 43.2366 10.0129 43.3934 10.0129 43.3934C10.0129 43.3934 10.0656 43.1834 10.0656 42.9749C10.0129 42.8164 9.96008 42.5561 9.69825 42.3461C9.69825 42.3461 10.0129 42.2938 9.96008 42.0304C9.96008 41.7684 9.80285 41.7165 9.59387 41.6633C9.43594 41.6121 9.27898 41.7165 9.27898 41.9266C9.22721 42.0305 9.0689 41.7684 9.0689 41.5599C9.0689 41.4012 9.2272 41.193 9.43595 41.193C9.59388 41.193 9.8539 41.244 10.0656 41.4547C10.2745 41.6633 10.4318 42.0304 10.3786 42.2938C10.3786 42.6079 10.4837 42.9221 10.5366 43.4455C10.5366 43.6049 10.6416 44.2317 11.2184 44.493L11.4802 44.1269C11.0614 43.9179 10.8504 43.1834 11.2706 42.8704C11.4802 42.7127 12.0041 42.8164 11.8467 42.8704C11.7945 42.9221 11.7416 42.9749 11.6894 43.1323C11.532 43.4455 11.6372 43.5513 11.7945 43.6559L12.4751 42.7127ZM25.0442 1.6276C24.9154 2.05366 24.3152 2.65301 24.6611 3.10347C24.8369 3.33138 25.2055 3.3747 25.4056 3.12037C25.7492 2.68419 25.1816 2.03819 25.0442 1.6276ZM24.9926 3.87895C23.7799 3.87895 24.305 2.34632 23.7337 2.20303C23.4189 2.1503 23.2103 2.36107 23.2103 2.36107C23.2103 1.2464 24.3444 1.54191 24.4153 1.67937C24.4153 1.24021 24.6991 0.871038 24.9926 0.579102C25.3399 0.869253 25.4993 1.20653 25.5885 1.6508C25.6585 1.60189 26.7576 1.252 26.931 2.25444C26.8672 2.22825 26.6166 2.1503 26.4592 2.20303C25.6988 2.39547 26.2054 3.87895 24.9926 3.87895ZM37.4223 42.7127C37.9454 42.0833 38.5229 42.4495 38.5229 42.2415C38.4691 41.9794 38.7324 41.7165 39.047 41.8219C39.0989 41.8732 39.1519 41.4547 39.3607 41.193C39.6228 40.9308 40.1484 40.7208 40.6701 40.7749C40.985 40.7749 41.2473 40.7749 41.2473 40.7749C41.4576 40.7208 41.8241 40.7208 41.9282 40.616H41.9807C42.2946 40.5636 42.5569 40.4069 42.767 40.1457C42.9767 39.8303 43.0813 39.1492 42.6093 38.9382C42.3472 38.8867 41.8771 39.1492 42.0328 39.2024C42.0856 39.2024 42.1905 39.2024 42.2946 39.3058C42.5056 39.5166 42.3472 39.9343 42.0328 39.9879C41.6142 40.0395 41.6661 39.5678 41.6142 39.7246C41.5611 39.9343 41.2991 40.1456 41.0375 40.2505C40.7763 40.3546 40.5136 40.3013 40.5136 40.3013C40.5136 40.3013 40.6184 40.1967 40.8811 39.8838C41.1954 39.6209 41.1419 39.4639 41.4576 38.9911C41.9282 38.258 42.3472 38.5203 42.2946 38.3633C42.2438 38.1013 42.5056 37.7859 42.767 37.8387C42.8194 37.8387 42.8195 37.4204 42.9767 37.1586C43.1344 36.7912 43.5026 36.5282 43.9198 36.4239C44.3396 36.3719 44.6527 36.2147 44.6527 36.2147C44.8108 36.1627 44.9682 36.1103 45.1256 36.005L45.2303 35.9517C45.4901 35.8473 45.8057 35.5849 45.9114 35.3248C46.068 34.9571 46.0154 34.276 45.4901 34.1709C45.1777 34.1709 44.8108 34.4853 44.9682 34.4853C45.0193 34.4853 45.0724 34.5378 45.2303 34.5884C45.4901 34.6945 45.4388 35.1662 45.1777 35.2182C44.8108 35.3248 44.706 35.0094 44.706 35.1662C44.706 35.3761 44.4963 35.6903 44.2871 35.8473C44.0247 35.9517 43.7629 36.005 43.7629 36.005C43.7629 36.005 43.8665 35.8991 44.0766 35.5329C44.2871 35.1662 44.1821 35.0094 44.3909 34.4853C44.6012 33.9086 45.0193 33.6468 44.9682 33.5944C44.7572 33.2255 44.9682 32.9133 45.2825 32.8608C45.2825 32.8608 45.2303 32.7036 45.3867 32.3371C45.5443 31.9701 45.7546 31.6018 46.173 31.4455C46.5396 31.2885 46.9068 31.0265 46.9068 31.0265C47.012 30.9219 47.221 30.7635 47.3268 30.6593L47.3779 30.6072C47.5877 30.397 47.7447 30.1354 47.7975 29.8215C47.8495 29.4545 47.6405 28.8259 47.1174 28.8771C46.802 28.8771 46.4866 29.3493 46.6974 29.2964C46.7482 29.2452 46.802 29.2452 46.9592 29.2964C47.2741 29.4546 47.3268 29.8215 47.0647 30.03C46.7482 30.241 46.5397 29.8215 46.593 30.03C46.645 30.241 46.5397 30.5552 46.3316 30.7634C46.173 30.9219 45.9114 31.0265 45.9114 31.0265C45.9114 31.0265 45.9639 30.9219 46.068 30.501C46.173 30.0826 46.068 29.9792 46.1201 29.4015C46.173 28.5636 46.6973 28.7742 46.593 28.4588C46.3316 27.9344 46.7482 27.8836 46.6974 27.8294C46.6974 27.7787 46.593 27.4108 46.5397 27.0963C46.5397 26.7296 46.6974 26.3626 47.012 26.1534C47.1174 26.0497 47.5349 25.6286 47.5349 25.6286C47.6405 25.5242 47.9019 25.2086 48.0077 24.9999L48.0605 24.9467C48.2164 24.6854 48.3219 24.3712 48.2695 24.057C48.2164 23.6903 47.8495 23.1131 47.3779 23.2706C47.1174 23.376 47.012 23.8468 47.0647 23.7958C47.1173 23.7958 47.221 23.6903 47.4309 23.742C47.6936 23.742 47.8495 24.162 47.6405 24.4243C47.3778 24.7381 47.0647 24.3712 47.1684 24.5286C47.221 24.7381 47.221 25.1049 47.0647 25.3148C46.9592 25.5242 46.7482 25.7339 46.7482 25.7339C46.7482 25.7339 46.7482 25.5759 46.7482 25.1576C46.802 24.6854 46.645 24.6332 46.5397 24.057C46.435 23.2706 46.853 23.1131 46.7482 23.062C46.4866 22.8513 46.4866 22.4833 46.7482 22.3793C46.802 22.3276 46.4866 22.0658 46.3829 21.6994C46.3316 21.3322 46.3829 21.0175 46.645 20.6521C46.853 20.2843 47.0647 19.9702 47.0647 19.9702C47.1173 19.8115 47.2741 19.4993 47.3268 19.3409V19.2881C47.431 18.9737 47.431 18.6596 47.3268 18.3451C47.1684 17.9789 46.6974 17.5589 46.2781 17.8212C46.0154 17.9789 46.0154 18.5014 46.068 18.3984C46.1201 18.3451 46.173 18.2924 46.3829 18.2403C46.645 18.1875 46.9068 18.5547 46.802 18.871C46.593 19.2368 46.2264 18.9738 46.3316 19.0784C46.4866 19.2368 46.5397 19.6032 46.4866 19.8648C46.4351 20.1257 46.2264 20.3367 46.2264 20.3367C46.2264 20.3367 46.2264 20.1787 46.1201 19.7592C46.0154 19.3409 45.9114 19.3409 45.6492 18.7623C45.3354 18.0301 45.7547 17.7157 45.5975 17.7674C45.3354 17.7674 45.2303 17.2456 45.4388 17.0869C45.4901 17.0869 45.1255 16.826 44.9158 16.5102C44.7572 16.1967 44.706 15.8293 44.9158 15.4624C45.0723 15.0956 45.1777 14.5202 45.1777 14.5202C45.2303 14.3099 45.2825 14.1529 45.2303 13.9952V13.943C45.2825 13.6283 45.1777 13.3145 45.0193 13.052C44.8108 12.7375 44.1822 12.4238 43.8665 12.7902C43.6566 13.0521 43.7098 13.5763 43.815 13.4191C43.8665 13.367 43.8665 13.2616 44.0247 13.209C44.3396 13.0521 44.6527 13.367 44.6012 13.6812C44.5492 14.1012 44.0766 13.8899 44.2347 13.9952C44.443 14.1529 44.5492 14.4674 44.5492 14.7292C44.5492 14.9908 44.443 15.2528 44.443 15.2528C44.443 15.2528 44.3909 15.0956 44.1822 14.7292C44.0247 14.362 43.8665 14.362 43.5026 13.8899C42.9767 13.209 43.5026 12.8948 43.1865 12.8948C42.6618 12.8416 42.9241 12.3199 42.8718 12.3199C42.8194 12.2661 42.5056 12.1084 42.2438 11.8473C41.9807 11.5836 41.8771 11.2701 41.9282 10.851C42.0328 10.4324 42.0856 9.8035 42.0856 9.8035C42.0856 9.64557 42.0856 9.54048 42.0328 9.38422V9.33173C41.9807 9.01683 41.7188 8.70264 41.4576 8.49092C41.1954 8.23183 40.4613 8.0739 40.1992 8.49092C40.0945 8.7562 40.3566 9.27937 40.4099 9.12168C40.4099 9.06943 40.4099 8.9653 40.5649 8.86057C40.8285 8.65063 41.1954 8.86056 41.2473 9.22783C41.2473 9.59332 40.7762 9.54049 40.9326 9.59333C41.1419 9.69889 41.3521 9.96071 41.4576 10.2225C41.5098 10.4837 41.4576 10.7462 41.4576 10.7462C41.4576 10.7462 41.3522 10.6423 41.0899 10.3282C40.8285 9.96071 40.6701 10.0136 40.1992 9.64557C39.569 9.17381 39.7792 8.75619 39.6748 8.75619C39.047 8.86056 39.2558 8.33691 39.2028 8.28371C39.1519 8.28371 38.7845 8.23182 38.4691 8.02081C38.208 7.81159 37.9985 7.55071 37.9454 7.12977C37.9454 6.7112 37.5264 5.66318 37.5264 5.66318V5.61082C37.37 5.29686 37.1595 5.08645 36.8977 4.92876C36.5835 4.7725 35.9019 4.7725 35.7968 5.24533C35.6924 5.55845 36.0067 5.97821 36.0067 5.82028C36.0603 5.76851 36.0067 5.61082 36.1116 5.50716C36.3216 5.24533 36.7399 5.34876 36.846 5.71543C37.0032 6.08187 36.5311 6.08187 36.6889 6.13519C36.8976 6.18708 37.1595 6.39534 37.3181 6.60683C37.4222 6.86794 37.4223 7.12977 37.4223 7.12977C37.4223 7.12977 37.3181 7.02528 37.0032 6.81677C36.6363 6.55399 36.5311 6.60683 35.955 6.39535C35.2208 6.02962 35.5349 5.55845 35.2208 5.66318C34.6978 5.82027 34.6978 5.29687 34.6445 5.29687C34.5923 5.29687 34.2261 5.29686 33.9112 5.19201C33.5445 5.08645 33.2823 4.82557 33.1772 4.45866C33.0197 4.03854 32.8101 3.46289 32.8101 3.46289C32.7053 3.30496 32.6013 3.19987 32.4968 3.09514V3.04313C32.2343 2.83331 31.9724 2.78058 31.6568 2.83331C31.3427 2.88591 31.0809 3.04313 31.2385 3.41135C31.2897 3.61915 31.5014 3.67164 31.5014 3.67164C31.5014 3.67164 31.5014 3.46288 31.815 3.41135C31.815 3.41135 32.024 3.41136 32.1294 3.56631C32.2858 3.77779 32.024 3.88264 32.1294 3.93298C32.7053 4.24789 32.7053 4.7725 32.6524 4.71966C32.024 4.09139 31.0809 3.98654 31.0809 3.98654C30.8704 4.24789 30.453 4.196 30.453 3.8298H30.0861C29.6137 3.77779 29.1942 3.7778 28.6181 3.51502C28.6181 3.51502 29.8769 3.41135 30.5572 2.93875C31.0809 2.62313 31.5529 2.36131 31.9202 2.4151C32.1823 2.4151 32.4436 2.52019 32.6524 2.72846C32.7053 2.78059 32.8634 2.57125 33.1232 2.62313C33.4398 2.72846 33.3877 3.04313 33.4914 3.04313C33.7011 3.09513 33.8581 3.04313 34.2781 3.30495C34.6445 3.5663 34.6445 3.67163 35.1684 3.77779C35.6405 3.88264 35.8495 3.98654 35.8495 3.98654C35.8495 3.98654 35.6924 4.14327 35.4826 4.14327C35.3267 4.196 35.011 4.24789 34.7479 4.09139C34.7479 4.09139 34.8015 4.35274 34.5399 4.45866C34.3304 4.51138 34.1728 4.40582 34.0681 4.24789C34.016 4.196 34.016 3.98654 34.1727 3.88265C34.3304 3.7778 33.9111 3.72495 33.7532 3.77779C33.4914 3.88264 33.4914 4.14328 33.597 4.35274C33.6484 4.45866 33.8061 4.66669 34.0681 4.77249C34.3304 4.87865 34.7479 4.87865 35.0109 4.77249C35.2738 4.61552 35.5877 4.56255 36.0603 4.45866C36.4788 4.29918 36.9501 4.40582 37.3181 4.71966C37.6836 4.92876 37.6836 5.03432 37.8406 5.34875L37.8933 5.40052C37.9454 5.45384 38.1029 5.19201 38.3654 5.34875C38.6268 5.50716 38.5229 5.76851 38.6268 5.82028C38.836 5.97821 38.9414 5.92549 39.3069 6.23885C39.6228 6.60683 39.569 6.71121 40.0435 6.92126C40.5136 7.1838 40.6701 7.28747 40.6701 7.28747C40.6701 7.28747 40.4613 7.39231 40.2515 7.39231C40.0946 7.39231 39.8318 7.34077 39.569 7.12977C39.569 7.12977 39.5187 7.44409 39.2558 7.44409C38.9939 7.44409 38.836 7.1838 38.836 7.02527C38.836 6.86794 38.8888 6.86795 39.0989 6.81677C39.2557 6.76357 38.9939 6.50412 38.679 6.60683C38.5229 6.65812 38.3654 6.92126 38.3654 7.07812C38.4172 7.23629 38.5229 7.49788 38.7324 7.65414C38.9939 7.81159 39.3607 7.91692 39.6748 7.86515C39.9374 7.81159 40.2515 7.81159 40.7762 7.81159C41.1954 7.81159 41.6661 7.96976 41.8771 8.28371C42.1392 8.54554 42.2438 8.65063 42.2946 9.06943L42.3472 9.12168C42.3472 9.22784 42.5569 9.06943 42.767 9.27937C43.0282 9.48812 42.8195 9.69889 42.9241 9.8035C43.0813 9.96071 43.2398 9.96071 43.4481 10.3793C43.7098 10.7462 43.6566 10.851 44.0247 11.2178C44.3909 11.5325 44.5492 11.6901 44.5492 11.6901C44.5492 11.6901 44.2871 11.742 44.1294 11.6901C43.9724 11.6369 43.7098 11.5325 43.5026 11.2701C43.5026 11.2701 43.4481 11.5836 43.1344 11.5325C42.9241 11.4799 42.767 11.3234 42.767 11.062C42.8194 10.9034 42.9241 10.851 43.1344 10.851C43.2911 10.851 42.9767 10.5363 42.767 10.5363C42.5056 10.5363 42.4002 10.7462 42.3472 10.9565C42.3472 11.1135 42.4002 11.3751 42.5569 11.5836C42.767 11.7943 43.1344 12.0038 43.3939 12.0038C43.7098 12.0038 44.0247 12.1084 44.4964 12.2143C44.9159 12.3199 45.3867 12.7375 45.4901 13.052C45.6492 13.4191 45.6492 13.6283 45.6492 13.8899V13.943C46.173 13.943 46.3316 14.2573 46.1201 14.6754C46.1201 14.6754 46.3829 14.8871 46.4866 15.3579C46.593 15.8293 46.5397 15.8819 46.802 16.3011C47.1173 16.7748 47.221 16.9295 47.221 16.9295C47.221 16.9295 46.9592 16.9295 46.802 16.8261C46.645 16.7748 46.435 16.5637 46.3316 16.2496C46.3316 16.2496 46.173 16.4591 45.9114 16.4058C45.7011 16.3011 45.5974 16.0912 45.6492 15.8819C45.7011 15.7242 45.9639 15.62 46.1201 15.6719C46.173 15.7242 45.9639 15.4118 45.8057 15.3579C45.5974 15.3057 45.3354 15.4624 45.2825 15.6719C45.2303 15.8293 45.1777 16.0911 45.3354 16.3534C45.4901 16.6157 45.7547 16.8261 46.068 16.9295C46.3316 17.0346 46.593 17.1927 47.0647 17.4012C47.4309 17.6122 47.7975 18.134 47.7975 18.4496C47.8495 18.8161 47.7975 19.0784 47.6936 19.3409C48.2164 19.445 48.3219 19.8648 48.0077 20.1257C48.0077 20.1257 48.1637 20.4406 48.2164 20.9659C48.2164 21.4366 48.112 21.4886 48.2695 21.9614C48.4793 22.4328 48.4793 22.6423 48.4793 22.6423C48.4793 22.6423 48.2695 22.5894 48.112 22.4328C48.0077 22.3276 47.8495 22.1166 47.7975 21.8035C47.7975 21.8035 47.5877 22.0658 47.3779 21.855C47.1684 21.6994 47.1684 21.3837 47.2741 21.2261C47.4309 21.1231 47.5348 21.1231 47.6405 21.1744C47.7975 21.2796 47.6405 20.8585 47.4828 20.755C47.2741 20.7038 47.0648 20.755 46.9592 20.9127C46.802 21.1231 46.802 21.3322 46.853 21.5934C46.9068 21.9083 47.1174 22.2215 47.3779 22.3793C47.6405 22.5368 47.8495 22.7462 48.2164 23.1131C48.5311 23.376 48.7929 23.9505 48.6885 24.3188C48.6362 24.6332 48.6362 24.7917 48.4793 24.9999V25.0516C48.7929 25.367 48.7929 25.7339 48.4272 25.9432C48.4272 25.9432 48.5837 26.3099 48.4793 26.7822C48.3736 27.254 48.2695 27.3051 48.3219 27.7788C48.3736 28.3009 48.3737 28.5116 48.3737 28.5116C48.3737 28.5116 48.1637 28.4068 48.0605 28.1967C47.9546 28.0919 47.8495 27.8294 47.9019 27.5169C47.9019 27.5169 47.6405 27.7252 47.4309 27.4634C47.3268 27.254 47.3779 26.9382 47.5349 26.8871C47.7447 26.7823 47.7446 26.7823 47.9019 26.8871C48.0605 27.0423 48.0077 26.6242 47.8495 26.4681C47.7447 26.3099 47.4309 26.3626 47.2741 26.4681C47.1684 26.5712 47.012 26.7822 47.012 27.0963C47.012 27.4108 47.1174 27.7787 47.3268 27.9872C47.5348 28.1967 47.6936 28.4588 48.0077 28.8771C48.2164 29.193 48.3219 29.8215 48.1637 30.1354C48.0077 30.501 47.9546 30.6593 47.6936 30.817V30.8697C47.6405 30.9219 47.9546 31.0793 47.9019 31.3407C47.7975 31.6552 47.5349 31.6552 47.4828 31.7599C47.431 31.9701 47.5348 32.0748 47.3268 32.4926C47.1174 32.9656 47.012 32.9656 46.9068 33.4365C46.853 33.9617 46.802 34.1709 46.802 34.1709C46.802 34.1709 46.593 34.0134 46.5397 33.8035C46.5397 33.6468 46.435 33.3845 46.593 33.0707C46.593 33.0707 46.3316 33.1742 46.173 32.9133C46.1201 32.6512 46.2264 32.4926 46.3829 32.388C46.4866 32.2845 46.6973 32.388 46.7482 32.4926C46.7482 32.599 46.9592 32.3371 46.7482 32.0213C46.645 31.8662 46.3829 31.8122 46.2264 31.9176C46.1202 32.0213 45.9114 32.179 45.8057 32.4413C45.7547 32.7546 45.8057 33.1226 45.9114 33.3845C46.068 33.6468 46.173 33.9617 46.3316 34.4327C46.4866 34.8 46.435 35.429 46.173 35.6903C45.9639 36.005 45.8057 36.1627 45.5444 36.2663L45.4901 36.3191C45.4388 36.3719 45.7547 36.5282 45.5975 36.7912C45.4901 37.0537 45.2303 37.0009 45.1777 37.1054C45.0723 37.2627 45.1256 37.4204 44.8108 37.7859C44.4963 38.1551 44.3909 38.1013 44.1822 38.5714C43.9725 39.0437 43.8665 39.254 43.8665 39.254C43.8665 39.254 43.7629 39.0437 43.7629 38.8352C43.7098 38.6768 43.7629 38.4166 43.9198 38.1551C43.9198 38.1551 43.6566 38.1551 43.6054 37.8387C43.6054 37.6293 43.7629 37.4723 43.9198 37.4204C44.0247 37.4204 44.1821 37.4723 44.2347 37.6293C44.2871 37.7341 44.443 37.4204 44.3909 37.21C44.3396 37.0537 44.0766 36.8955 43.8665 36.9482C43.7098 37.0009 43.5026 37.1054 43.3429 37.3674C43.1865 37.6293 43.1344 37.9964 43.2398 38.258C43.2911 38.5714 43.2911 38.8867 43.3939 39.4092C43.4481 39.7777 43.1865 40.3546 42.9241 40.616C42.6093 40.8259 42.4525 40.9308 42.1392 40.9834V41.0349C42.2438 41.244 42.0856 41.5599 42.0856 41.5599C41.824 41.7684 41.6661 41.6121 41.5611 41.7165C41.4043 41.8732 41.5099 41.9266 41.1419 42.2415C40.7234 42.5023 40.6184 42.4495 40.3566 42.8704C40.0435 43.2366 39.8844 43.3934 39.8844 43.3934C39.8844 43.3934 39.8318 43.1834 39.8318 42.9749C39.8844 42.8164 39.9373 42.5561 40.1992 42.3461C40.1992 42.3461 39.8844 42.2938 39.9373 42.0304C39.9373 41.7684 40.0946 41.7165 40.3034 41.6633C40.4614 41.6121 40.6184 41.7165 40.6184 41.9266C40.6701 42.0305 40.8285 41.7684 40.8285 41.5599C40.8285 41.4012 40.6701 41.193 40.4613 41.193C40.3034 41.193 40.0435 41.244 39.8318 41.4547C39.6228 41.6633 39.4656 42.0304 39.5187 42.2938C39.5187 42.6079 39.4137 42.9221 39.3607 43.4455C39.3607 43.6049 39.2558 44.2317 38.679 44.493L38.4172 44.1269C38.836 43.9179 39.047 43.1834 38.6268 42.8704C38.4172 42.7127 37.8933 42.8164 38.0507 42.8704C38.1029 42.9221 38.1557 42.9749 38.208 43.1323C38.3654 43.4455 38.2601 43.5513 38.1029 43.6559L37.4223 42.7127ZM16.2993 46.6394L15.5776 46.3407L15.4076 46.5052C15.3531 46.5605 15.3157 46.6096 15.2975 46.6529C15.2741 46.7114 15.2796 46.7633 15.3147 46.8096C15.3344 46.8377 15.3969 46.8771 15.4995 46.9302L15.4769 46.9858L14.7967 46.7025L14.8197 46.6454C14.8976 46.6668 14.9701 46.6616 15.0387 46.6296C15.1066 46.5998 15.2076 46.5196 15.3423 46.3918L16.7523 45.0505L16.7808 45.0625L16.8211 47.0578C16.8259 47.2483 16.8423 47.3734 16.8699 47.434C16.8906 47.4798 16.932 47.5161 16.9913 47.5488L16.9699 47.6053L15.9794 47.194L16.0012 47.1373L16.0427 47.1544C16.1226 47.188 16.1839 47.2005 16.2241 47.1902C16.2531 47.1831 16.2745 47.1661 16.2867 47.1344C16.2939 47.1152 16.2986 47.0981 16.3004 47.0751C16.3016 47.0644 16.3052 47.0204 16.3016 46.9421L16.2993 46.6394ZM16.2945 46.5061L16.2838 45.6703L15.6767 46.2503L16.2945 46.5061ZM20.1995 46.2158L20.0283 46.7952L19.972 46.778C19.9779 46.633 19.9696 46.5276 19.9469 46.4573C19.9234 46.3871 19.8803 46.3238 19.8198 46.2673C19.7862 46.2379 19.7186 46.2074 19.62 46.1771L19.4618 46.1305L18.9743 47.7806C18.9426 47.89 18.9287 47.9606 18.9317 47.9907C18.9353 48.0224 18.9522 48.0527 18.9807 48.0834C19.0099 48.1153 19.055 48.1395 19.1153 48.1568L19.1853 48.1787L19.1686 48.2364L18.0575 47.9062L18.0742 47.8492L18.146 47.8692C18.207 47.8873 18.2598 47.892 18.303 47.8799C18.3343 47.8728 18.3622 47.8544 18.39 47.8234C18.4078 47.8014 18.4342 47.7386 18.4653 47.6295L18.9531 45.9804L18.7995 45.9348C18.6569 45.8926 18.5434 45.8919 18.4604 45.9336C18.3445 45.9917 18.2526 46.0965 18.1808 46.2482L18.1207 46.2303L18.2919 45.651L20.1995 46.2158ZM21.8008 48.0572L21.0268 47.9424L20.9025 48.1444C20.8618 48.2115 20.8377 48.2673 20.8303 48.3143C20.822 48.3753 20.8398 48.4264 20.8855 48.4618C20.9103 48.484 20.9805 48.5066 21.0931 48.5335L21.0847 48.5926L20.3553 48.4847L20.3637 48.4264C20.4448 48.424 20.5138 48.4015 20.5721 48.3569C20.632 48.3098 20.712 48.2079 20.8103 48.0502L21.8576 46.4061L21.8875 46.4108L22.4058 48.337C22.4565 48.5196 22.5018 48.6365 22.5448 48.6889C22.5758 48.7276 22.6248 48.7543 22.6902 48.77L22.6819 48.8304L21.6221 48.6723L21.6304 48.613L21.6748 48.6202C21.7598 48.6309 21.8211 48.6273 21.8592 48.6094C21.8856 48.5965 21.9004 48.5728 21.9057 48.5402C21.9093 48.5205 21.9092 48.4994 21.9045 48.4791C21.9045 48.4684 21.8938 48.4258 21.8748 48.3493L21.8008 48.0572ZM21.7625 47.9287L21.5511 47.1207L21.1026 47.8298L21.7625 47.9287ZM24.4841 47.902L24.4574 48.5198C24.4515 48.6415 24.4539 48.7164 24.4693 48.7475C24.4822 48.7812 24.5069 48.8065 24.5435 48.827C24.5811 48.8464 24.6496 48.8582 24.7495 48.8628L24.7459 48.9234L23.6227 48.8769L23.6236 48.8153C23.7266 48.8201 23.7957 48.813 23.8337 48.7956C23.8702 48.7789 23.8972 48.7545 23.9139 48.7242C23.931 48.6939 23.9403 48.619 23.9455 48.4991L24.011 47.053C24.0158 46.9324 24.0122 46.8575 23.9991 46.8243C23.9839 46.7927 23.96 46.7665 23.9246 46.7471C23.8882 46.7249 23.8194 46.7142 23.7186 46.7097L23.7198 46.6497L24.6859 46.69C25.0018 46.7019 25.228 46.7698 25.3625 46.8896C25.494 47.0086 25.5571 47.1532 25.5498 47.326C25.5415 47.4688 25.4928 47.5906 25.3987 47.6917C25.3062 47.7894 25.1797 47.8542 25.0207 47.887C24.9151 47.9062 24.7347 47.9123 24.4838 47.902H24.4841ZM24.5326 46.8119L24.49 47.7742C24.5265 47.7778 24.5524 47.7802 24.5711 47.7802C24.7038 47.7861 24.807 47.7498 24.8828 47.6741C24.9571 47.5994 25.0006 47.476 25.008 47.3086C25.0151 47.1434 24.9851 47.0218 24.9163 46.942C24.8473 46.8622 24.743 46.8203 24.6 46.8141L24.5326 46.8119ZM28.37 46.3685L28.4689 47.1332L28.4062 47.1404C28.3328 46.9478 28.2249 46.8075 28.081 46.7174C27.9382 46.6288 27.7837 46.5953 27.6191 46.6174C27.4823 46.6363 27.3612 46.6931 27.2573 46.7883C27.1538 46.8825 27.082 46.9973 27.0471 47.1324C27.0007 47.306 26.9895 47.4929 27.0157 47.6939C27.0399 47.8917 27.0891 48.0688 27.1614 48.224C27.2307 48.3798 27.3247 48.4931 27.4409 48.5623C27.5583 48.6311 27.7 48.654 27.8682 48.6311C28.0074 48.6114 28.1291 48.5639 28.2378 48.4876C28.3445 48.4131 28.4499 48.2905 28.5595 48.1232L28.5849 48.3157C28.4785 48.4604 28.3617 48.5723 28.2364 48.6478C28.11 48.7243 27.9566 48.7736 27.78 48.7977C27.5456 48.8299 27.3309 48.8096 27.1378 48.7405C26.9428 48.6704 26.7847 48.5531 26.663 48.3905C26.5424 48.2248 26.4674 48.0421 26.441 47.8441C26.4148 47.6339 26.4434 47.4259 26.5299 47.2233C26.6133 47.0182 26.7427 46.8501 26.9146 46.7229C27.0891 46.5933 27.2793 46.5146 27.4883 46.4857C27.643 46.4667 27.8094 46.4773 27.9913 46.5213C28.0956 46.5479 28.1617 46.5586 28.1881 46.5539C28.221 46.5503 28.2508 46.533 28.2729 46.5041C28.2954 46.4739 28.3064 46.4335 28.3064 46.3761L28.37 46.3685ZM31.2492 45.8031L31.377 46.3918L31.3198 46.4045C31.2557 46.2767 31.1965 46.1864 31.1411 46.137C31.0883 46.0869 31.0206 46.0525 30.9406 46.0338C30.8958 46.0231 30.824 46.0314 30.7223 46.0525L30.5617 46.0896L30.9286 47.7662C30.9529 47.8776 30.9745 47.9456 30.9921 47.9715C31.0108 47.9964 31.0413 48.0149 31.0803 48.0283C31.122 48.0413 31.1719 48.041 31.233 48.0271L31.3068 48.0112L31.3175 48.071L30.1848 48.3249L30.1718 48.2666L30.2443 48.2494C30.3064 48.2359 30.3552 48.2135 30.3896 48.1811C30.413 48.1604 30.429 48.1298 30.4364 48.0892C30.4423 48.0622 30.434 47.9936 30.4102 47.8849L30.0416 46.2054L29.8863 46.2415C29.7401 46.2738 29.6408 46.3292 29.5891 46.4051C29.5154 46.513 29.4845 46.6503 29.4947 46.8167L29.4332 46.8294L29.3052 46.2407L31.2492 45.8031ZM33.5623 46.6479L32.8334 46.9386L32.825 47.1745C32.8238 47.2533 32.831 47.3144 32.848 47.3582C32.8714 47.417 32.9105 47.4495 32.9681 47.4579C33.0017 47.4638 33.0748 47.4496 33.1841 47.415L33.2072 47.4707L32.5206 47.7439L32.4987 47.6878C32.5677 47.6469 32.6178 47.5917 32.6452 47.5224C32.6733 47.4536 32.6918 47.3263 32.6988 47.1389L32.7906 45.1923L32.8205 45.1803L34.2269 46.5839C34.3614 46.7175 34.4596 46.795 34.5213 46.8188C34.568 46.8363 34.6243 46.8353 34.6893 46.8164L34.7116 46.8733L33.7132 47.2706L33.6916 47.2133L33.7326 47.1966C33.814 47.1655 33.8652 47.1318 33.8878 47.0964C33.9045 47.0711 33.906 47.0429 33.895 47.0115C33.8878 46.9946 33.8768 46.9771 33.8628 46.9602C33.8569 46.9506 33.8271 46.9194 33.7726 46.8631L33.5623 46.6479ZM33.4657 46.556L32.8798 45.9643L32.8416 46.8042L33.4657 46.556ZM35.7597 45.1407L36.0957 45.7407C36.1509 45.8403 36.1916 45.8995 36.217 45.9187C36.2417 45.936 36.2751 45.9457 36.3169 45.9457C36.3595 45.9464 36.4064 45.9322 36.4611 45.9009L36.5251 45.8652L36.5551 45.9177L35.5461 46.4932L35.5168 46.4391L35.5808 46.4036C35.636 46.3717 35.6749 46.3357 35.6986 46.2967C35.716 46.2673 35.7212 46.2354 35.7168 46.195C35.7144 46.1673 35.6856 46.1034 35.6316 46.005L34.9161 44.7317C34.8612 44.6323 34.8204 44.5733 34.7958 44.5541C34.7714 44.5359 34.7367 44.5261 34.6964 44.5261C34.654 44.5261 34.6052 44.5411 34.5517 44.5717L34.4886 44.6077L34.4577 44.5541L35.4669 43.9788L35.4967 44.0326L35.4322 44.0683C35.3764 44.1009 35.3372 44.1363 35.3137 44.1761C35.2965 44.2037 35.2893 44.2367 35.2941 44.278C35.2953 44.3072 35.3261 44.3714 35.3798 44.4666L35.6879 45.0152L36.369 44.6261L36.0611 44.0775C36.006 43.9788 35.9641 43.9191 35.9422 43.9013C35.9158 43.8812 35.8814 43.8728 35.8415 43.8728C35.7977 43.8728 35.7494 43.8869 35.6958 43.9188L35.6341 43.9542L35.6024 43.9013L36.6108 43.3244L36.6415 43.3785L36.5777 43.4143C36.5221 43.4467 36.4813 43.4831 36.4594 43.5214C36.4422 43.5488 36.4358 43.5822 36.4399 43.6233C36.4423 43.6525 36.4701 43.7151 36.5251 43.8122L37.2411 45.0872C37.2962 45.1863 37.3358 45.2453 37.3605 45.2643C37.3849 45.2825 37.4197 45.2925 37.4608 45.2927C37.5047 45.2927 37.5526 45.2777 37.6071 45.2471L37.6697 45.2113L37.6996 45.2643L36.6914 45.8387L36.662 45.786L36.7238 45.7514C36.7808 45.7188 36.8204 45.6821 36.8423 45.6437C36.8595 45.6163 36.8669 45.5814 36.8628 45.5411C36.8592 45.5124 36.8309 45.4494 36.7769 45.3515L36.4405 44.7519L35.7597 45.1407Z" fill="#FFCB00"/>
<path fill-rule="evenodd" clip-rule="evenodd" d="M25.0012 45.7515C36.4259 45.7515 45.7012 36.4762 45.7012 25.0001C45.7012 13.5243 36.4259 4.24805 25.0012 4.24805C13.5766 4.24805 4.30078 13.5243 4.30078 25.0001C4.30078 36.4762 13.5766 45.7515 25.0012 45.7515ZM25.0012 45.4195C36.2432 45.4195 45.3701 36.2926 45.3701 25.0001C45.3701 13.7077 36.2432 4.58009 25.0012 4.58009C13.7593 4.58009 4.63191 13.7077 4.63191 25.0001C4.63191 36.2926 13.7593 45.4195 25.0012 45.4195Z" fill="#FFCB00"/>
<path fill-rule="evenodd" clip-rule="evenodd" d="M25.0009 43.2156C14.9722 43.2156 6.8125 35.0548 6.8125 24.9744C6.8125 14.9444 14.9722 6.78516 25.0009 6.78516C35.0291 6.78516 43.1887 14.9444 43.1887 24.9744C43.1887 34.6821 35.4552 43.2156 25.0009 43.2156Z" fill="#FF0000"/>
<path fill-rule="evenodd" clip-rule="evenodd" d="M17.4219 12.1436V12.169L17.4366 12.1561L17.4219 12.1436Z" fill="#ECEDED"/>
<path fill-rule="evenodd" clip-rule="evenodd" d="M24.2229 24.7637C25.7321 24.7637 26.9555 25.9626 26.9555 27.4417C26.9555 28.9205 25.7321 30.1196 24.2229 30.1196C22.7137 30.1196 21.4902 28.9205 21.4902 27.4417C21.4902 25.9626 22.7137 24.7637 24.2229 24.7637Z" fill="black"/>
<path fill-rule="evenodd" clip-rule="evenodd" d="M15.3502 37.7048C15.2739 37.9437 15.3242 38.0563 15.3843 38.2949C15.0593 38.2005 14.7794 38.1081 14.7008 37.7224C14.601 37.6717 14.5254 37.603 14.471 37.5256L14.399 37.4894C14.0812 37.3298 14.0177 36.9798 14.105 36.7677L14.1133 36.6902C14.1998 35.8156 15.2027 35.4548 15.9635 35.6351C16.1452 35.6398 16.4221 35.7651 16.5672 35.8383C16.7882 35.949 17.0777 36.0541 17.3203 35.95C17.7136 35.7793 17.9201 35.0131 18.0313 34.6398L18.4905 33.1121C18.6944 32.4339 18.928 31.7319 19.1065 31.0493C19.159 30.8468 19.1397 30.4321 19.1172 30.2078C19.1014 30.1638 19.0868 30.1185 19.073 30.072L18.9674 30.0287C18.8991 30.0006 18.8328 29.9721 18.7681 29.9433L18.7189 29.9744C18.0879 30.3733 17.3078 30.2959 16.6556 29.9959C16.2186 29.7947 15.7863 29.5644 15.3619 29.3378C14.986 29.1371 14.6121 28.9329 14.2382 28.7283C14.0663 28.6345 13.8425 28.4958 13.6665 28.4209C13.4705 28.3414 13.2239 28.2011 13.0043 28.2563C12.7858 28.3112 12.7953 28.6 12.7776 28.7748C12.5108 28.6382 12.3607 28.5456 12.3607 28.2019C12.3607 28.1169 12.3734 28.0138 12.4062 27.9205C12.0596 27.9121 11.632 27.9982 11.5516 28.3704C11.5056 28.6177 11.645 28.9168 11.554 29.2206C11.5576 29.2197 11.5612 29.2182 11.5648 29.217L11.896 29.1821C11.815 29.3986 11.7585 29.6089 11.5283 29.7166L11.5188 29.7365C11.4336 29.9164 11.2885 30.021 11.1383 30.0658C10.9308 30.4311 10.4538 30.4311 10.308 30.2389C9.72435 30.2029 9.43633 29.1534 9.49857 28.6968C9.59521 27.9744 10.2036 27.1294 10.8166 26.7569C11.4072 26.3987 12.1425 26.3563 12.8158 26.3645C13.7734 26.3764 14.6876 26.6444 15.614 26.8454C15.9186 26.9127 16.2547 26.9253 16.5656 26.9156L16.5716 26.9154C16.5585 26.801 16.5476 26.6831 16.5385 26.5611C16.4907 25.914 16.4895 25.338 16.5433 24.6943C16.6086 23.9183 16.548 23.3511 16.407 22.5765C16.3126 22.0484 16.233 21.7338 15.9388 21.2953C15.7328 20.991 15.3972 20.6664 15.0067 20.6561C14.9398 20.6549 14.8139 20.7683 14.7662 20.809C14.6149 20.9399 14.4737 21.0299 14.2817 21.0889C14.012 21.174 13.7872 21.2379 13.5168 21.102C13.4041 21.0454 13.3417 20.9853 13.27 20.8868C13.2377 20.8433 13.2069 20.8079 13.1638 20.7747C13.0684 20.7009 12.9524 20.5945 12.9559 20.4652C12.9559 20.4186 12.9685 20.3809 12.99 20.3493L12.9034 20.0507C12.797 19.9666 12.7142 19.8789 12.6799 19.7457C12.5941 19.6843 12.535 19.6013 12.4727 19.5098C12.3988 19.403 12.3646 19.2698 12.3534 19.1416L12.3499 19.1031C12.2411 18.9625 12.1997 18.7224 12.1997 18.5695C12.1997 18.2957 12.4829 18.1515 12.6825 18.0313C12.8965 17.8961 13.0307 17.676 13.2965 17.5856L13.5509 17.5212C13.8274 17.4608 13.9638 17.4095 14.1285 17.1716C14.5328 16.5942 15.2795 16.5021 15.931 16.5299C16.0866 16.5359 16.2412 16.5509 16.3956 16.5699L16.3992 16.5651L16.411 16.5643C16.5296 16.4217 16.6608 16.2681 16.8303 16.1955C17.0795 16.0847 17.2861 16.0764 17.5387 16.1963C17.8135 16.3278 17.8584 16.4928 17.9044 16.7707C17.9222 16.8818 17.9468 17.0355 17.9538 17.1575C18.2229 17.3449 18.652 17.7115 18.8496 17.9183C19.746 18.8623 20.0451 19.8938 20.6043 21.0236C20.8457 21.5715 21.1392 22.0108 21.5385 22.3127C21.7139 21.3012 21.8175 20.2721 21.8175 19.2454C21.8175 18.8373 21.8012 18.4289 21.7641 18.0222C21.6047 16.2285 21.0025 13.6933 19.5677 12.4702C19.1402 12.1254 18.4292 11.6827 17.8674 11.9539C17.5628 12.101 17.4926 12.2343 17.2289 12.5885L17.2523 12.0303C17.2772 11.4374 17.6846 10.9612 18.2683 10.8413C19.2189 10.667 20.141 11.2434 20.8157 11.9044C20.7338 11.4251 20.7099 10.9269 20.7874 10.4533C20.9363 9.55331 21.6709 8.30309 22.758 8.63608C23.0105 8.71344 23.3417 8.88529 23.6777 8.99812L23.0965 9.13855C22.2663 9.3392 21.9558 10.3067 21.9407 11.0632C21.9466 11.7646 22.44 12.6835 22.7533 13.3037L22.9481 13.706C22.8892 12.2967 23.5014 10.5584 25.1007 11.2176C25.2732 11.2887 25.5777 11.5972 25.8135 11.7577L25.3064 11.7862C23.7717 11.8732 24.2236 13.9397 24.5805 14.8696C24.6749 15.1133 24.7673 15.3565 24.8496 15.6029C24.9798 14.9368 25.2871 14.2601 25.8958 14.0408C26.1622 13.9521 26.4214 13.9474 26.6746 14.0785C27.0231 14.2594 27.3811 14.5799 27.7145 14.8007L26.9553 14.6913C26.3966 14.6107 26.1255 15.2486 26.038 15.7018C25.868 16.3845 26.1168 17.293 26.2995 17.9815C26.4244 17.4186 26.7111 16.8857 27.313 16.8688C27.5267 16.8554 27.7234 16.8968 27.9076 17.0074C28.1126 17.1301 28.3823 17.4085 28.6412 17.5984L28.0907 17.5837C27.5308 17.5683 27.4046 17.6416 27.3679 18.2125C27.3236 18.8806 27.4949 19.7262 27.607 20.5016C27.738 20.232 27.9527 19.9967 28.2426 19.9387C28.4185 19.8957 28.5973 19.919 28.7543 20.0103C28.883 20.0853 29.0206 20.3018 29.1783 20.4507L28.8781 20.5294C28.4151 20.6511 28.4974 21.2537 28.4974 21.6173C28.4998 21.7574 28.5022 21.8964 28.5022 22.0365C28.5022 22.0436 28.5022 22.0515 28.5022 22.0589C28.8033 21.9502 28.9527 21.8501 29.2326 21.6338L29.381 21.5194C30.0772 20.9866 30.9375 20.5704 31.8143 20.4546C32.5042 20.3664 33.3116 20.5047 33.9721 20.7063C34.6764 20.9235 35.1996 21.263 35.8004 21.6777C36.2756 22.0053 37.2889 22.4814 37.7535 21.9C38.2449 21.2846 37.6345 20.4704 37.2526 19.971C36.7068 19.2558 34.496 18.0892 33.6233 17.6123C32.2235 16.8354 30.8269 16.0976 30.0867 14.5909C29.5847 13.5664 29.5824 12.3459 30.1653 11.3549C30.4309 10.9065 31.1439 10.0571 31.7308 10.3951C32.2832 10.7144 32.0739 11.4529 31.827 11.8974C31.4619 12.5731 31.4816 13.0906 31.9776 13.7191C32.6573 14.5831 34.4832 15.6529 35.4864 16.134C36.6817 16.7098 37.9974 17.5102 38.8219 18.5719C39.5292 19.477 39.9381 20.4818 39.838 21.6394C39.7559 22.6103 39.1256 23.3506 38.3019 23.8164C38.2441 23.8491 38.0151 23.9801 37.9366 24.0554C38.0092 24.1256 38.1614 24.1649 38.1762 24.3176C38.2863 25.0398 38.3656 25.7368 38.3656 26.4689C38.3656 27.2717 38.228 28.1717 38.1248 28.971C38.0684 29.4197 37.9731 29.9828 37.9731 30.4303C37.9731 31.0731 38.6379 31.3958 38.6379 32.0507C38.6379 32.4855 37.708 33.8828 37.4152 34.3005C37.2491 34.5375 36.4448 35.6405 36.4448 35.9102C36.445 35.9162 36.4454 35.9197 36.4453 35.9209C36.4749 36.1011 36.7806 35.9779 36.9092 35.9779C36.8923 36.4267 36.3484 36.6621 35.9479 36.5524C35.8286 36.7841 35.6542 37.0062 35.4625 37.1713C34.9851 37.5795 34.4384 37.5859 33.8641 37.7368C33.6698 37.7886 33.4658 37.8469 33.2667 37.8668C33.0505 37.8914 32.7779 37.8663 32.5578 37.8167C32.522 37.9289 32.5649 38.093 32.5753 38.2091C32.3128 38.1354 32.1315 38.1101 32.0321 37.8124L31.9598 37.7761C31.8016 37.6965 31.7041 37.5713 31.6555 37.4382L31.646 37.4335C31.2137 37.217 31.2341 36.6606 31.4649 36.5341C31.4637 36.516 31.4625 36.4972 31.4625 36.477C31.4625 36.3831 31.4518 36.3977 31.5087 36.3262C31.6833 36.0667 31.7788 35.9527 32.061 35.8026C32.3602 35.6397 32.896 35.4896 33.2348 35.5046C33.5538 35.5222 33.8693 35.6417 34.1824 35.6417C34.5222 35.6417 34.605 35.6047 34.8156 35.3312C35.1307 34.9203 35.5883 33.9222 35.7633 33.421C35.9256 32.956 35.9781 32.6729 36.0162 32.1918C36.0485 31.7863 35.7809 31.4205 35.6408 31.057C35.4409 30.5528 35.0674 29.961 34.7912 29.4859L34.3621 28.7318C34.1251 29.078 33.8793 29.7432 33.8371 30.141C33.7974 30.5178 33.9599 30.6548 33.8311 31.0799C33.6703 31.6138 33.7258 31.4124 33.2048 31.7047C32.7314 31.9715 30.9237 33.0535 30.7377 33.4976C30.7201 33.5399 30.6228 33.7913 30.7109 33.8244L30.8155 33.8483C30.8806 34.1795 30.6569 34.2298 30.3613 34.2068C30.2172 34.1973 30.0613 34.1409 29.9525 34.0394C29.9501 34.0405 29.9477 34.0429 29.9453 34.0441C29.937 34.0501 29.9261 34.0573 29.9203 34.0666C29.791 34.279 29.7798 34.3433 29.5846 34.5465C29.1758 34.9736 28.8346 34.827 28.3636 34.939C28.067 35.0132 27.3113 35.16 27.033 35.0856C26.9279 35.0563 26.8182 35.0181 26.7138 34.9728C26.6962 35.0236 26.6826 35.0658 26.696 35.0939L26.7699 35.4054L26.4632 35.3216C26.3079 35.2439 26.2161 35.1188 26.1748 34.9879C26.1436 34.9701 26.1148 34.9504 26.0887 34.929L26.0593 34.9465L26.0701 34.9131C25.9912 34.8435 25.937 34.7596 25.9043 34.6724C25.5424 34.4791 25.5231 34.0354 25.6835 33.8583C25.6716 33.6876 25.7072 33.5221 25.8025 33.3745C26.0306 33.0208 26.5215 32.8927 26.9145 32.8483C27.1944 32.8167 27.8807 32.8056 28.1565 32.9486C28.7871 33.1005 28.7929 32.9027 29.2372 32.5403C29.8196 32.0639 30.3343 31.3831 30.8784 30.8538C31.1821 30.5542 31.3553 30.2631 31.3992 29.8297C31.4505 29.3073 31.0274 28.2808 30.7983 27.7958C30.6342 27.4514 30.5164 26.9576 30.449 26.5584C29.1875 27.5036 27.9887 29.1166 26.7874 29.8288C25.964 30.5655 25.2267 30.9099 23.9701 30.8549L23.6845 30.8939C23.1162 30.9716 22.5353 31.0051 21.9615 30.9895C21.9133 31.2879 21.8223 31.5497 21.6836 31.8589L21.6502 31.9383C21.3817 32.5362 20.922 33.2568 20.5909 33.8358C20.3731 34.2194 20.1155 34.6341 19.921 35.0289C19.8259 35.211 19.7097 35.525 19.7097 35.7321C19.7097 35.7782 19.7157 35.8512 19.7524 35.8868C19.8879 36.0234 20.1009 35.9837 20.2756 35.9837C20.1114 36.257 20.0309 36.3983 19.688 36.4601C19.5619 36.4842 19.3979 36.4915 19.2635 36.4438C19.1587 36.7013 18.8862 37.0044 18.8141 37.0832C18.3203 37.6231 17.6782 37.6609 17.0017 37.7347C16.8551 37.755 16.7114 37.7916 16.5671 37.831C16.0573 37.9587 15.7855 37.7631 15.3502 37.7067V37.7048ZM21.8475 27.4104C21.8475 26.0595 22.9448 24.9604 24.2973 24.9604C25.6478 24.9604 26.7481 26.0595 26.7481 27.4104C26.7481 28.7626 25.6478 29.8625 24.2973 29.8625C22.9448 29.8625 21.8475 28.7626 21.8475 27.4104ZM13.2719 20.0396L13.4017 20.1384C13.4598 20.1195 13.5133 20.1009 13.5847 20.0995C13.6635 20.0971 13.7955 20.1217 13.8652 20.086C14.1607 19.9362 14.0552 19.6792 13.8107 19.6189C13.7647 19.7355 13.6545 19.8183 13.5195 19.8183C13.4956 19.8183 13.4727 19.816 13.4508 19.8112C13.4105 19.8561 13.3565 19.8896 13.2911 19.9076C13.2758 19.9112 13.2604 19.9147 13.2453 19.9159C13.2477 19.9231 13.2489 19.9293 13.2501 19.9345L13.2719 20.0396Z" fill="black"/>
<path fill-rule="evenodd" clip-rule="evenodd" d="M22.0215 27.4112C22.0215 28.6743 23.0476 29.6711 24.2968 29.6854C25.5515 29.6711 26.5724 28.6789 26.5724 27.4112C26.5724 26.1588 25.5484 25.1367 24.2968 25.1367C23.0437 25.1367 22.0215 26.1588 22.0215 27.4112ZM22.1616 27.4112C22.1616 28.5969 23.1245 29.5322 24.2968 29.5453C25.474 29.5322 26.4321 28.6007 26.4321 27.4112C26.4321 26.2362 25.4711 25.277 24.2968 25.277C23.1209 25.277 22.1616 26.2362 22.1616 27.4112Z" fill="white"/>
<path fill-rule="evenodd" clip-rule="evenodd" d="M27.5747 27.4106C27.5747 29.2177 26.0942 30.6885 24.297 30.6885C22.4984 30.6885 21.0195 29.2209 21.0195 27.4106C21.0195 26.3027 21.5706 25.3229 22.4132 24.7303H22.4155C22.575 24.6196 22.7403 24.521 22.9192 24.437L22.918 24.4406C22.9561 24.4244 22.9944 24.406 23.0324 24.3898V24.3862C23.6272 24.1386 24.2887 24.0716 24.9217 24.1953V24.196C25.637 24.3336 26.2953 24.7123 26.7754 25.2663L26.7731 25.2687C26.796 25.2956 26.8189 25.3227 26.841 25.35L26.8421 25.3488C26.9776 25.5135 27.0962 25.6936 27.1962 25.8844L27.196 25.8867C27.2673 26.024 27.2917 26.0594 27.3826 26.313L27.3836 26.3107C27.4718 26.557 27.5273 26.8129 27.5548 27.0718L27.5572 27.0709C27.5679 27.1823 27.5747 27.2967 27.5747 27.4115V27.4106ZM21.934 27.4106C21.934 26.1076 22.9924 25.0476 24.297 25.0476C25.5997 25.0476 26.6609 26.1076 26.6609 27.4106C26.6609 28.7152 25.5997 29.7762 24.297 29.7762C22.9924 29.7762 21.934 28.7152 21.934 27.4106Z" fill="#FFCB00"/>
<path fill-rule="evenodd" clip-rule="evenodd" d="M15.0234 37.3648C14.8132 37.2652 14.7511 37.8508 15.1481 38.0499C15.0041 37.7441 15.4365 37.5627 15.0234 37.3648Z" fill="white"/>
<path fill-rule="evenodd" clip-rule="evenodd" d="M14.3747 36.7801C14.2048 36.6973 14.1534 37.1735 14.4764 37.3356C14.3595 37.0881 14.7106 36.9405 14.3747 36.7801Z" fill="white"/>
<path fill-rule="evenodd" clip-rule="evenodd" d="M14.6726 36.9834C14.493 36.8979 14.4411 37.3979 14.7796 37.569C14.6558 37.3076 15.0262 37.152 14.6726 36.9834Z" fill="white"/>
<path fill-rule="evenodd" clip-rule="evenodd" d="M11.1271 29.4783C11.0547 29.6379 11.4974 29.6754 11.6418 29.3712C11.4134 29.4863 11.2687 29.1612 11.1271 29.4783Z" fill="white"/>
<path fill-rule="evenodd" clip-rule="evenodd" d="M10.7803 29.7842C10.6992 29.9659 11.2007 30.0065 11.3635 29.663C11.1034 29.7939 10.9409 29.4274 10.7803 29.7842Z" fill="white"/>
<path fill-rule="evenodd" clip-rule="evenodd" d="M10.4498 30.0658C10.3725 30.237 10.8491 30.2769 11.005 29.9496C10.7579 30.074 10.6034 29.7262 10.4498 30.0658Z" fill="white"/>
<path fill-rule="evenodd" clip-rule="evenodd" d="M26.444 34.6493C26.2846 34.5734 26.238 35.0158 26.5391 35.1663C26.4292 34.9339 26.7559 34.7983 26.444 34.6493Z" fill="white"/>
<path fill-rule="evenodd" clip-rule="evenodd" d="M25.8917 33.9674C25.7222 33.8858 25.6714 34.3599 25.9944 34.5236C25.878 34.2748 26.2277 34.1275 25.8917 33.9674Z" fill="white"/>
<path fill-rule="evenodd" clip-rule="evenodd" d="M26.1762 34.2645C25.9983 34.1798 25.9433 34.6787 26.2846 34.8497C26.1607 34.588 26.5306 34.4336 26.1762 34.2645Z" fill="white"/>
<path fill-rule="evenodd" clip-rule="evenodd" d="M32.2975 37.4635C32.1416 37.3889 32.0926 37.8307 32.3944 37.9814C32.2847 37.7496 32.6116 37.6133 32.2975 37.4635Z" fill="white"/>
<path fill-rule="evenodd" clip-rule="evenodd" d="M31.6139 36.6924C31.4358 36.6068 31.3807 37.1067 31.7219 37.2776C31.5984 37.0161 31.9697 36.861 31.6139 36.6924Z" fill="white"/>
<path fill-rule="evenodd" clip-rule="evenodd" d="M31.929 37.0353C31.7496 36.9492 31.6957 37.4496 32.0359 37.6205C31.9132 37.3585 32.2825 37.2028 31.929 37.0353Z" fill="white"/>
<path fill-rule="evenodd" clip-rule="evenodd" d="M26.126 34.1868C26.2028 34.1549 26.3 34.1915 26.3836 34.3261C26.5107 34.1004 26.9279 33.7462 27.4947 33.8261C27.0608 33.7994 26.4883 34.1575 26.3587 34.5679C26.4171 34.5334 26.5785 34.5595 26.6399 34.7445C26.7837 34.822 26.9583 34.8841 27.0786 34.9178C27.2826 34.9724 27.9571 34.8614 28.3221 34.77C28.686 34.6834 29.1071 34.7942 29.4601 34.4254C29.8135 34.0577 29.6989 34.0016 29.8482 33.9C29.9954 33.7995 29.9954 33.7995 29.9954 33.7995C29.9954 33.7995 30.0638 34.0124 30.3726 34.0334C30.6809 34.0577 30.6675 33.9896 30.6675 33.9896C30.6675 33.9896 30.3727 33.9219 30.5781 33.4298C30.7832 32.9398 32.5031 31.9007 33.1196 31.553C33.7348 31.2078 33.5407 31.4433 33.6655 31.0286C33.7911 30.6149 33.6192 30.5613 33.6655 30.1213C33.7116 29.6885 33.9857 28.9512 34.2479 28.5928L34.2467 28.5845C33.953 28.0512 33.7052 27.5968 33.5839 27.111C33.4458 26.578 33.2112 25.861 32.0731 25.8752C31.5253 25.88 31.0272 26.1144 30.621 26.3865L30.6006 26.4147C30.6006 26.4147 30.7256 27.2412 30.9537 27.7199C31.1814 28.2018 31.6263 29.2747 31.5704 29.8446C31.5127 30.4135 31.2388 30.7381 30.999 30.9745C30.7593 31.2076 29.7564 32.3358 29.3462 32.6715C28.9363 33.0058 28.8562 33.2975 28.0926 33.1084C27.8238 32.9395 25.7036 32.809 25.862 33.9093C25.931 33.852 26.0681 33.9521 26.0862 34.0197C26.2341 33.5502 26.6871 33.3775 27.0518 33.4288C26.5316 33.455 26.1951 33.7145 26.1262 34.1866L26.126 34.1868Z" fill="white"/>
<path fill-rule="evenodd" clip-rule="evenodd" d="M27.6687 27.4107C27.6687 28.2728 27.3448 29.0595 26.8125 29.6561C28.4547 28.6286 30.1632 25.6857 32.1897 25.6636C33.4194 25.6506 33.6343 26.5042 33.7484 26.9641C33.8753 27.4697 34.1365 27.9524 34.4383 28.5124L34.4988 28.6223L34.9408 29.399C35.278 29.9792 35.6599 30.6362 35.801 30.9927C35.9576 31.3985 36.2247 31.7434 36.1879 32.2042C36.1511 32.6701 36.1269 32.9008 35.926 33.4764C35.7194 34.0682 35.2011 35.1105 34.9521 35.4348C34.6974 35.766 34.5597 35.8128 34.1824 35.8128C33.855 35.8128 33.5502 35.6932 33.2259 35.6755C32.9785 35.6648 32.4702 35.7747 32.1431 35.9529C31.8798 36.0928 31.8058 36.192 31.6496 36.4238C31.6401 36.4364 31.6349 36.4529 31.6349 36.4757C31.6349 36.512 31.6325 36.5523 31.6626 36.6132C31.6872 36.6179 31.8089 36.7606 31.8342 36.7806C32.1122 36.2599 32.3845 36.2317 32.8772 36.2407C32.4379 36.3017 32.0295 36.4299 31.8975 36.9408C32.0049 36.9801 32.1239 37.0241 32.1492 37.1357C32.342 36.6593 32.8653 36.6653 33.258 36.5458C33.0944 36.6479 32.1515 36.8362 32.2159 37.3628C32.3301 37.3617 32.5146 37.4748 32.4977 37.5892C32.5108 37.602 32.537 37.6274 32.5491 37.6366C32.614 37.6529 32.9578 37.7277 33.2477 37.6946C33.4158 37.6777 33.6023 37.6274 33.8198 37.5693C34.3649 37.426 34.9096 37.4164 35.3505 37.0393C35.6965 36.7418 35.8434 36.3688 35.8455 36.3653L35.879 36.2872C36.0358 36.4921 36.6178 36.3772 36.7168 36.1492C36.5103 36.1492 36.3232 36.2441 36.2749 35.9445C36.274 35.9338 36.2725 35.9211 36.2725 35.9098C36.2725 35.6411 36.6593 35.0783 37.2741 34.2009C37.8471 33.3844 38.4657 32.3296 38.4657 32.05C38.4657 31.4606 37.8009 31.1467 37.8009 30.4296C37.8009 30.1659 37.8717 29.6017 37.954 28.9485C38.0672 28.0725 38.1933 27.0808 38.1933 26.4682C38.1933 25.7184 38.1186 25.0816 38.0057 24.3405C37.9997 24.2753 37.7579 24.1867 37.7478 24.0624C37.7431 23.9841 37.8166 23.8923 38.2172 23.6657C39.0817 23.177 39.5962 22.454 39.6665 21.6241C39.7551 20.5986 39.434 19.634 38.6861 18.6772C38.0162 17.8146 36.9116 17.011 35.4117 16.2886C34.3969 15.802 32.5322 14.7021 31.8423 13.8251C31.0956 12.8789 31.4886 12.1608 31.6758 11.8143C31.764 11.6555 32.17 10.8473 31.6446 10.5435C31.2319 10.3059 30.6193 10.9255 30.3136 11.442C30.111 11.7863 29.5097 13.0209 30.2415 14.5144C30.9643 15.9861 32.3576 16.7123 33.7066 17.461C34.9697 18.151 36.8772 19.1943 37.3895 19.8658C37.9504 20.5995 38.4 21.3659 37.888 22.0069C37.419 22.5939 36.4522 22.3357 35.7024 21.8187C34.9804 21.3203 34.5527 21.0649 33.9214 20.8702C33.1711 20.6414 32.4114 20.5513 31.8364 20.6248C31.385 20.6845 30.4775 20.8967 29.4857 21.6555L29.3379 21.7695C29.0347 22.0039 28.8953 22.1132 28.4261 22.2665C28.4213 22.59 28.4048 22.9313 28.3574 23.2802C28.7185 22.6103 29.3076 22.9792 29.4585 23.5317C28.778 23.3621 28.8271 23.9205 28.7594 24.4887C28.7363 24.7004 28.7106 24.8982 28.675 25.048C28.5021 25.7288 28.1191 26.4561 27.642 26.98C27.6594 27.1204 27.6687 27.265 27.6687 27.4107Z" fill="white"/>
<path fill-rule="evenodd" clip-rule="evenodd" d="M17.793 11.798C18.4323 11.4897 19.1969 11.949 19.6773 12.3361C20.8654 13.3489 21.7108 15.4693 21.9361 18.0062C21.9727 18.4065 21.9901 18.8189 21.9901 19.2447C21.9901 20.2556 21.8896 21.3321 21.6877 22.4598C21.7859 22.5247 21.8865 22.5779 21.987 22.6222C22.1947 21.485 22.3008 20.3931 22.3008 19.3583C22.3008 18.893 22.2784 18.4382 22.2369 17.9991C21.975 15.3571 21.0827 13.2417 19.7936 12.1957C19.3093 11.8354 18.3729 11.3662 17.793 11.798Z" fill="#FFCB00"/>
<path fill-rule="evenodd" clip-rule="evenodd" d="M20.9851 12.3335C20.3425 11.6043 19.3298 10.8212 18.2998 11.01C17.7723 11.1184 17.4443 11.5474 17.4238 12.037C18.0732 11.1653 19.1482 11.5935 19.8531 12.1166C21.1637 13.1816 22.0677 15.3213 22.3341 17.9891C22.4877 19.5844 22.3651 21.0779 22.0841 22.6509C22.3241 22.7424 22.5866 22.7877 22.8419 22.8206C23.4612 19.5968 23.2028 17.4066 21.8993 14.5018C21.5935 13.7683 21.2595 13.0837 20.9851 12.3335Z" fill="white"/>
<path fill-rule="evenodd" clip-rule="evenodd" d="M22.563 24.5209C22.6857 24.4467 22.815 24.3797 22.9475 24.322C23.2828 22.9376 23.5863 21.3845 23.5863 19.7873C23.5863 17.8561 23.0472 16.1236 22.232 14.38C21.7615 13.3098 21.0819 12.2692 21.0654 11.0617C21.0856 10.1332 21.5527 8.70629 22.7072 8.79983C21.7301 8.50039 21.0856 9.70266 20.9571 10.4804C20.8628 11.0557 20.924 11.6885 21.0734 12.2995C21.309 13.0499 21.7257 13.8279 21.9909 14.4633C23.0542 16.8373 23.4649 18.7007 23.1775 21.2937L23.168 21.3735C23.0403 22.4365 22.8212 23.4837 22.5633 24.5209H22.563Z" fill="#FFCB00"/>
<path fill-rule="evenodd" clip-rule="evenodd" d="M23.0614 24.2746C23.297 24.18 23.5477 24.1133 23.8069 24.075C24.0887 22.8996 24.3272 21.7238 24.3484 20.514V20.5128C24.3488 20.4857 24.3496 20.4562 24.3496 20.428C24.3496 18.6884 23.9493 16.972 23.4056 15.3313C23.297 14.9932 23.2274 14.8241 23.1354 14.4883L22.5978 13.3784C22.1735 12.5383 21.7729 11.7418 21.7676 11.0623C21.7847 10.2078 22.1478 9.1893 23.0553 8.96996C21.7729 8.53938 21.1847 10.023 21.1641 11.0615C21.1787 12.2552 21.8586 13.2814 22.3216 14.3396C22.7916 15.3422 23.3021 16.5415 23.5184 17.8244C23.9226 20.0782 23.5255 22.3388 23.0614 24.2748V24.2746Z" fill="white"/>
<path fill-rule="evenodd" clip-rule="evenodd" d="M23.9108 24.0619C24.0223 24.049 24.1366 24.0408 24.2504 24.0397C24.508 22.9463 24.7551 21.7289 24.7551 20.4743C24.7551 20.0253 24.7246 19.5703 24.6498 19.1154C24.4294 17.7882 24.1834 16.4777 23.7187 15.2133C23.5125 14.6481 23.3002 14.0686 23.3002 13.465C23.3002 12.5311 23.8321 10.9595 25.0323 11.3757C23.2392 10.6365 22.8279 13.3447 23.2768 14.6115L23.4966 15.2987C24.0462 16.9633 24.45 18.6921 24.4451 20.4577V20.5169V20.5193C24.425 21.7189 24.1883 22.894 23.9108 24.0624V24.0619Z" fill="#FFCB00"/>
<path fill-rule="evenodd" clip-rule="evenodd" d="M24.3557 24.0405C24.5576 24.0453 24.7569 24.0654 24.9476 24.1041C25.2267 23.132 25.4911 22.0211 25.4911 20.9313C25.4911 20.8015 25.49 20.6729 25.4804 20.5438C25.4241 19.6534 25.2468 18.853 25.056 18.0426C24.954 17.5939 24.8439 17.0113 24.8439 16.4254C24.8439 16.3407 24.8463 16.2556 24.851 16.1738C24.8087 16.0338 24.7664 15.8939 24.7187 15.7559C24.6254 15.4648 24.5223 15.1957 24.42 14.9312C24.0361 13.9311 23.575 11.7115 25.2969 11.614C24.0716 10.7807 23.4004 12.4992 23.4004 13.4639C23.4004 14.0511 23.6115 14.6241 23.8151 15.1795C24.2818 16.4496 24.5321 17.7659 24.75 19.1003C24.8252 19.5604 24.8577 20.0211 24.8577 20.4761C24.8577 21.7298 24.6121 22.9472 24.356 24.0405H24.3557Z" fill="white"/>
<path fill-rule="evenodd" clip-rule="evenodd" d="M25.0451 24.1232C25.1292 24.1424 25.2144 24.1648 25.2957 24.1896C25.5697 23.223 25.8301 22.1157 25.8301 20.9913C25.8301 20.8375 25.8253 20.6832 25.8153 20.5297C25.7943 19.825 25.6225 19.1178 25.4559 18.4365C25.276 17.7138 25.1054 17.0185 25.1054 16.3328C25.1054 15.7927 25.2336 15.0164 25.5621 14.5758C25.8134 14.2512 26.2038 14.121 26.5946 14.2303C26.3875 14.1229 26.1785 14.1268 25.9506 14.2027C25.1643 14.4861 24.9414 15.6868 24.9414 16.4246C24.9414 17.0024 25.0496 17.5779 25.1505 18.0187C25.345 18.8333 25.5189 19.6385 25.5786 20.5358C25.5869 20.6687 25.5908 20.7989 25.5908 20.9305C25.5908 22.0289 25.3231 23.1455 25.0451 24.1232Z" fill="#FFCB00"/>
<path fill-rule="evenodd" clip-rule="evenodd" d="M25.3898 24.2207C25.5161 24.2639 25.6396 24.3147 25.7576 24.3712C26.1672 23.5624 26.4065 22.8379 26.4818 22.1625C26.5629 21.4673 26.4925 20.7598 26.4128 20.158C26.3492 19.7054 26.2743 19.1688 26.2926 18.636C26.2491 18.4655 26.2054 18.2984 26.1618 18.1325C25.9124 17.1814 25.6971 16.3587 25.8708 15.6613C25.9729 15.131 26.304 14.4223 26.9803 14.5197C26.7798 14.3869 26.4818 14.2387 26.1796 14.3006C25.9124 14.348 25.7399 14.5092 25.6396 14.6348C24.8909 15.6463 25.2926 17.3638 25.5501 18.4135C25.7203 19.1004 25.8949 19.8115 25.9153 20.5252C26.0019 21.8199 25.7056 23.1127 25.3898 24.2207Z" fill="white"/>
<path fill-rule="evenodd" clip-rule="evenodd" d="M25.8438 24.4143C25.9183 24.4518 25.9891 24.4933 26.0611 24.536C26.4847 23.6964 26.7273 22.9305 26.8049 22.2072C26.9017 21.5014 26.7942 20.7871 26.6911 20.089C26.6164 19.5889 26.5425 19.1077 26.5425 18.634C26.5425 17.903 26.7857 16.793 27.8178 17.1535C27.6817 17.0719 27.5229 17.0268 27.3209 17.0391C26.5324 17.0614 26.3853 18.2032 26.3853 18.7985C26.3853 19.2624 26.4515 19.7218 26.5094 20.1451C26.5645 20.5595 26.6166 21.0253 26.6166 21.5042C26.6166 21.7264 26.6059 21.9509 26.578 22.1726C26.5015 22.8609 26.2593 23.5951 25.8438 24.4143Z" fill="#FFCB00"/>
<path fill-rule="evenodd" clip-rule="evenodd" d="M26.1445 24.59C26.3035 24.6941 26.4528 24.8124 26.5904 24.9392C26.8582 24.5206 27.0493 24.1236 27.1704 23.7284C27.3695 23.1194 27.4153 22.4995 27.4646 21.8415C27.4784 21.6369 27.495 21.4292 27.515 21.2189C27.4358 20.0358 27.1431 18.996 27.1959 18.1998C27.2389 17.5312 27.4414 17.3922 28.0952 17.4099C27.0484 16.6413 26.6422 17.8503 26.6422 18.6332C26.6422 19.1 26.716 19.5758 26.7893 20.0748C26.8924 20.7827 27.0003 21.5042 26.9049 22.2187C26.8248 22.9588 26.578 23.7342 26.1445 24.59Z" fill="white"/>
<path fill-rule="evenodd" clip-rule="evenodd" d="M26.6602 25.0086C26.7187 25.0664 26.7737 25.1241 26.8288 25.1864C27.1301 24.7224 27.3415 24.2757 27.4713 23.8289C27.6826 23.1398 27.7091 22.433 27.7319 21.7457C27.7463 21.3128 27.6987 20.6906 28.0103 20.3321C28.1554 20.1435 28.4477 20.0865 28.6662 20.1586C28.5562 20.0947 28.4226 20.0711 28.281 20.106H28.2802C27.9852 20.165 27.7273 20.4984 27.6476 20.9135C27.6072 21.2249 27.5844 21.5438 27.5617 21.8505C27.5163 22.4834 27.4647 23.1398 27.2642 23.7577C27.1379 24.1667 26.9382 24.577 26.6602 25.0086Z" fill="#FFCB00"/>
<path fill-rule="evenodd" clip-rule="evenodd" d="M26.8965 25.2652C27.0335 25.4318 27.1537 25.6086 27.2565 25.7978C27.74 25.0876 27.8603 24.2995 28.2196 23.5206V23.5194L28.2208 23.5182C28.3104 23.0054 28.3289 22.4957 28.3289 22.0358C28.3289 21.8909 28.3265 21.7521 28.3241 21.619C28.3241 21.1615 28.2529 20.5147 28.8334 20.3623C28.6387 20.1786 28.2595 20.1709 28.0885 20.3951C27.7951 20.7293 27.8452 21.3486 27.8312 21.7484C27.8069 22.4412 27.782 23.1573 27.5657 23.8565C27.4331 24.3205 27.2123 24.7839 26.897 25.2653L26.8965 25.2652Z" fill="white"/>
<path fill-rule="evenodd" clip-rule="evenodd" d="M27.3164 25.9112C27.3503 25.976 27.3803 26.0425 27.4089 26.1101C27.4562 26.0416 27.5008 25.9724 27.5411 25.9012C27.8896 25.3159 28.0899 24.6466 28.2573 23.9894C28.3345 23.6408 28.5927 22.8735 29.1441 23.125C28.5942 22.7126 28.2227 23.7213 28.1404 24.0143C27.9121 24.6666 27.7072 25.3334 27.3164 25.9112Z" fill="#FFCB00"/>
<path fill-rule="evenodd" clip-rule="evenodd" d="M27.4531 26.221C27.5292 26.423 27.5865 26.6329 27.6224 26.852C28.0647 26.3437 28.4158 25.6719 28.5788 25.0263C28.6168 24.8823 28.6396 24.6836 28.6635 24.4786C28.7124 24.0648 28.7004 23.2957 29.2885 23.3945C28.8123 22.7015 28.4424 23.642 28.3551 24.0135C28.1823 24.6777 27.9809 25.3549 27.6256 25.9496C27.5759 26.0415 27.5188 26.1321 27.4531 26.221Z" fill="white"/>
<path fill-rule="evenodd" clip-rule="evenodd" d="M22.0141 29.8924C21.3451 29.2755 20.9255 28.3928 20.9255 27.411C20.9255 26.2369 21.5267 25.2027 22.4379 24.5995C22.5632 24.0483 22.7079 23.495 22.8166 22.9405C21.6073 22.8505 20.9239 22.1779 20.4466 21.0944C19.9031 19.9969 19.614 18.974 18.7239 18.0366C18.4816 17.7831 17.8081 17.267 17.8001 17.2619L17.7839 17.2479L17.7827 17.2262C17.7827 17.2238 17.7701 17.0279 17.7334 16.7977C17.6965 16.5758 17.6794 16.4547 17.4635 16.3514C17.2379 16.2441 17.0801 16.2724 16.8988 16.3526C16.7139 16.4317 16.5 16.7298 16.4954 16.7301L16.4791 16.755L16.4501 16.7502C16.4489 16.7502 16.202 16.7133 15.9227 16.7014C15.3226 16.6758 14.6308 16.7529 14.2689 17.2698C14.0798 17.5429 13.9124 17.618 13.5881 17.6885L13.3413 17.7511C13.1342 17.8217 12.9671 18.0541 12.7729 18.1767C12.646 18.2532 12.3711 18.3877 12.3711 18.569C12.3711 18.6943 12.4198 18.9785 12.5278 19.0359C12.578 19.0632 12.6353 19.0825 12.6579 19.0418C12.7146 18.9396 12.809 18.8301 12.8047 18.7411C12.8712 18.8992 12.7729 19.0306 12.7108 19.1249C12.6677 19.1902 12.566 19.1387 12.524 19.1257C12.5312 19.2043 12.5514 19.3215 12.6134 19.4112C12.681 19.5101 12.7384 19.5931 12.8353 19.6366V19.6373C12.8481 19.8037 12.9623 19.882 13.0807 19.9687C13.0651 19.8945 13.0205 19.7633 13.0424 19.694C13.0459 19.6833 13.0471 19.6713 13.0519 19.6603C13.0662 19.6579 13.0813 19.6555 13.0963 19.6532C13.1224 19.7203 13.1843 19.7564 13.2468 19.7402C13.3187 19.7203 13.3611 19.6652 13.3611 19.5847V19.5764C13.3611 19.5669 13.361 19.5552 13.3575 19.5438L13.3826 19.5301C13.4038 19.6029 13.455 19.6464 13.5185 19.6464C13.5985 19.6464 13.6605 19.5819 13.6605 19.4964V19.4893C13.6605 19.4725 13.6605 19.4543 13.6581 19.4358C13.6641 19.4354 13.6688 19.4347 13.6769 19.4335C14.1881 19.4057 14.4512 19.9814 13.9418 20.2399C13.8208 20.3017 13.6989 20.2692 13.5872 20.2719C13.5114 20.2731 13.4426 20.3093 13.3651 20.3284L13.1036 20.1292L13.1835 20.4047C13.1604 20.4179 13.1261 20.4345 13.1261 20.466C13.1256 20.4859 13.139 20.5391 13.267 20.638C13.3324 20.6884 13.3727 20.7386 13.4064 20.784C13.4526 20.8472 13.4918 20.8973 13.5922 20.9479C13.8098 21.0573 13.9954 20.9977 14.2282 20.9242C14.3975 20.8721 14.5169 20.7951 14.6518 20.6782C14.7704 20.577 14.8846 20.481 15.0083 20.4834C15.3894 20.4941 15.7783 20.7536 16.0797 21.1985C16.2728 21.4863 16.4255 21.7114 16.5745 22.5456C16.7928 23.7473 16.7582 24.1709 16.7129 24.7083C16.6783 25.1245 16.6383 25.5964 16.7082 26.548C16.8362 28.2957 17.3739 29.1883 19.0301 29.8694C18.6066 28.2093 19.334 27.2878 19.7796 26.8339C18.8954 27.8406 19.0922 29.6541 19.2836 30.1687C19.2859 30.1939 19.345 30.8061 19.2707 31.0926C19.2249 31.2678 18.9332 32.2294 18.6529 33.1619L18.1937 34.6893C17.9942 35.3598 17.7952 35.9307 17.3862 36.1082C17.1432 36.2125 16.8495 36.1737 16.4874 35.9924C16.0983 35.7963 15.9415 35.8075 15.9405 35.8075C15.2675 35.6378 14.3575 35.9443 14.2821 36.7072C14.3811 36.6545 14.5512 36.7688 14.5434 36.8055C14.7556 36.0675 15.4094 36.2452 15.4902 36.2812C15.2923 36.3219 14.779 36.1837 14.6444 36.8769C14.8194 36.926 14.8723 36.9798 14.9112 37.1394C15.0855 36.6749 15.6341 36.754 15.9212 36.8424C15.6175 36.8266 15.1241 36.8317 14.9636 37.2694C15.0889 37.3024 15.2379 37.3607 15.2746 37.5241C15.7277 37.5599 16.0307 37.7854 16.5224 37.6622C16.6679 37.6224 16.8204 37.5839 16.9774 37.5621C17.5979 37.4945 18.2267 37.4662 18.6849 36.9651C19.176 36.4293 19.1279 36.2477 19.1268 36.2471L19.2172 36.2054C19.2207 36.2101 19.3088 36.3553 19.654 36.2889C19.8425 36.255 19.9317 36.1975 19.9751 36.1541C19.8833 36.1541 19.7487 36.1279 19.6285 36.0066C19.5615 35.9407 19.5354 35.8418 19.5354 35.7303C19.5354 35.4175 19.7351 35.0069 19.7658 34.9482C19.8276 34.8228 20.1115 34.3262 20.4392 33.749C20.8962 32.9494 21.4114 32.0434 21.4907 31.8669L21.5233 31.7894C21.6489 31.5096 21.8056 31.1617 21.8269 30.5641C21.8395 30.2426 21.925 30.0282 22.0127 29.8918L22.0141 29.8924ZM15.0431 17.7612C15.0431 17.737 15.0502 17.712 15.0589 17.6893C15.0578 17.7024 15.0505 17.7105 15.0505 17.7208C15.0505 17.8225 15.1399 17.9025 15.2513 17.9025C15.3213 17.9025 15.3794 17.8682 15.4145 17.819C15.3906 17.8968 15.3201 17.9543 15.2358 17.9543C15.1292 17.9543 15.0433 17.8663 15.0433 17.7612H15.0431ZM15.5509 17.7624C15.5772 17.7947 15.5936 17.8286 15.5936 17.8648C15.5936 17.9941 15.4345 18.0992 15.2393 18.0992C15.043 18.0992 14.8856 17.9941 14.8856 17.8648C14.8856 17.8304 14.8982 17.7997 14.92 17.7687C14.9236 17.9394 15.0627 18.0779 15.2356 18.0779C15.4093 18.0779 15.5509 17.9368 15.5509 17.7624ZM14.7612 17.8428C14.7773 17.6531 14.9822 17.5077 15.2393 17.5077C15.4142 17.5077 15.5728 17.5787 15.6574 17.6941C15.6681 17.7001 16.0125 17.8593 16.0125 17.8593L15.9882 17.9255C15.9197 17.9086 15.8027 17.8912 15.7687 17.9106L15.6923 17.9778L15.6994 17.9659C15.641 18.1177 15.4519 18.2248 15.2393 18.2248C15.1666 18.2248 15.0982 18.2093 15.0353 18.1868C15.0246 18.1856 14.8103 18.15 14.8103 18.15L14.5937 18.1441L14.5245 17.9912L14.5652 17.9816C14.5664 17.9816 14.65 17.9593 14.7039 17.9117C14.7246 17.8966 14.743 17.8704 14.7612 17.8426V17.8428ZM16.8617 16.5877C17.0393 16.3456 17.4119 16.4214 17.5017 16.681C17.5667 16.8696 17.6084 17.2457 17.4828 17.3492C17.3311 17.3303 17.0902 17.3095 16.9774 17.3777C17.1426 17.1199 17.4609 17.4454 17.3845 16.8575C17.3535 16.614 17.0937 16.4333 16.8617 16.5877ZM17.8354 18.7799C18.0517 19.3072 17.7776 20.165 17.2573 20.4158C17.0682 20.5047 16.3214 20.5886 15.8385 20.3074C16.1546 20.3797 16.9319 20.4654 17.2229 20.2952C17.7431 20.0479 17.9112 19.3116 17.8354 18.7799Z" fill="white"/>
<path fill-rule="evenodd" clip-rule="evenodd" d="M10.306 28.8346C10.3068 29.032 10.3784 29.601 10.6903 29.8127C10.6734 29.706 10.8686 29.5427 10.9558 29.5754C10.9836 29.5353 10.9371 29.5125 10.94 29.4767C10.745 29.1352 10.7503 28.89 10.868 28.5546C10.8156 28.7863 10.8404 29.1305 11.0382 29.4818C11.0734 29.3771 11.1692 29.2054 11.3418 29.2781C11.4837 29.0282 11.3489 28.4883 11.3813 28.3344C11.4975 27.7958 12.1331 27.7089 12.5902 27.7603L12.641 27.8579C12.641 27.8579 12.5312 27.943 12.5312 28.2016C12.5312 28.4557 12.63 28.5064 12.63 28.5064C12.63 28.5064 12.6652 28.1635 12.9602 28.0889C13.2526 28.0154 13.583 28.2016 13.7297 28.261C13.8767 28.3222 15.7959 29.4109 16.7258 29.8391C17.1208 30.0208 17.9268 30.2699 18.6252 29.8284C17.415 29.3996 16.7459 28.4725 16.5702 27.0869C16.3224 27.0941 15.9285 27.0905 15.5762 27.0129C15.0138 26.8907 13.7913 26.5475 12.813 26.5359C11.8336 26.5238 11.3084 26.6587 10.9053 26.9033C10.5008 27.1489 9.7782 27.8988 9.66847 28.7188C9.63063 28.997 9.83387 30.1145 10.37 30.0652C10.4202 29.9329 10.4669 29.8535 10.5739 29.8471C10.3067 29.5105 10.1975 29.1254 10.306 28.8345V28.8346Z" fill="white"/>
<path fill-rule="evenodd" clip-rule="evenodd" d="M23.6605 30.722C23.0678 30.6092 22.5285 30.3401 22.0899 29.9609C22.0132 30.0845 21.9383 30.2781 21.9276 30.5676C21.9252 30.655 21.918 30.7356 21.9102 30.8145C22.4404 30.8319 23.0417 30.8073 23.6605 30.722Z" fill="white"/>
<path fill-rule="evenodd" clip-rule="evenodd" d="M22.254 27.5622C22.2879 28.0275 22.477 28.4456 22.7692 28.7701C22.6588 28.6108 22.6441 28.3942 22.8341 28.2028C22.9462 28.0903 23.7775 27.5283 23.9796 27.7284C24.1713 27.919 23.6337 28.7433 23.5038 28.873C23.3238 29.0551 23.0734 29.0279 22.898 28.9008C23.2335 29.2132 23.6743 29.4147 24.1594 29.4514C23.9751 29.403 23.8208 29.2545 23.8208 29.0055C23.8208 28.8526 24.0134 27.8585 24.2964 27.8585C24.5806 27.8585 24.7703 28.8543 24.7703 29.0055C24.7703 29.255 24.6157 29.4035 24.4316 29.4516C24.8873 29.4177 25.3029 29.2406 25.6293 28.9625C25.4671 29.0482 25.2602 29.0447 25.0877 28.873C24.9805 28.7649 24.4111 27.9267 24.6121 27.7284C24.815 27.5283 25.6519 28.0952 25.7594 28.2028C25.9333 28.3763 25.935 28.585 25.8465 28.7478C26.1251 28.428 26.305 28.0204 26.3389 27.5672C26.2846 27.7431 26.1351 27.8873 25.8907 27.8873C25.7359 27.8873 24.7438 27.6949 24.7438 27.4104C24.7438 27.1267 25.7405 26.9365 25.8907 26.9365C26.1355 26.9365 26.2849 27.0804 26.3389 27.2563C26.3053 26.8092 26.1265 26.4013 25.8499 26.0795C25.8798 26.1404 25.8969 26.2096 25.8969 26.2845C25.8969 26.4107 25.8479 26.53 25.7594 26.6203C25.6246 26.7556 24.8112 27.2945 24.6121 27.0943C24.4128 26.8945 24.9805 26.0563 25.0877 25.9483C25.2497 25.7881 25.4652 25.7772 25.633 25.862C25.3097 25.5828 24.8985 25.4023 24.4484 25.3691C24.6251 25.4227 24.7703 25.5728 24.7703 25.8189C24.7703 25.9675 24.5806 26.9636 24.2964 26.9636C24.0142 26.9636 23.8208 26.0095 23.8208 25.8189C23.8208 25.5728 23.9661 25.4228 24.1431 25.3693C23.6846 25.4034 23.2673 25.5898 22.9417 25.8777C23.1022 25.7716 23.3176 25.7612 23.5038 25.9483C23.6081 26.053 24.1816 26.8931 23.9796 27.0943C23.7789 27.2965 22.9408 26.7262 22.8341 26.6203C22.6516 26.436 22.6751 26.1919 22.7975 26.0182C22.4888 26.3499 22.2884 26.7836 22.2539 27.2622C22.3065 27.0836 22.4566 26.9365 22.704 26.9365C22.8535 26.9365 23.8479 27.1266 23.8479 27.4104C23.8479 27.6949 22.859 27.8873 22.704 27.8873C22.4568 27.8873 22.3069 27.7403 22.254 27.5622ZM23.9537 27.4104C23.9537 27.2226 24.1069 27.0678 24.2964 27.0678C24.4863 27.0678 24.6388 27.2226 24.6388 27.4104C24.6388 27.6006 24.4863 27.7551 24.2964 27.7551C24.1069 27.7551 23.9537 27.6006 23.9537 27.4104Z" fill="#FFCB00"/>
<path fill-rule="evenodd" clip-rule="evenodd" d="M25.1551 28.806C25.5099 29.1591 26.0465 28.6231 25.6926 28.2698C25.5853 28.1622 24.8074 27.6692 24.6789 27.7959C24.553 27.9202 25.0502 28.7005 25.1551 28.806ZM24.8387 27.4104C24.8387 27.5905 25.7395 27.7925 25.8909 27.7925C26.3941 27.7925 26.3949 27.0313 25.8909 27.0313C25.7408 27.0313 24.8387 27.2323 24.8387 27.4104ZM25.1551 26.0153C25.0494 26.1214 24.5542 26.9018 24.6796 27.0275C24.8115 27.1602 25.5821 26.6642 25.6922 26.5538C25.7632 26.4812 25.8024 26.3861 25.8024 26.2845C25.8024 25.9536 25.3966 25.7763 25.1551 26.0153ZM23.9158 25.8189C23.9158 25.9752 24.1095 26.8688 24.2966 26.8688C24.4749 26.8688 24.6758 25.969 24.6758 25.8189C24.6758 25.314 23.9158 25.3145 23.9158 25.8189ZM22.9011 26.5531C23.0076 26.6589 23.7865 27.1547 23.9128 27.0273C24.0396 26.9012 23.5428 26.1214 23.4369 26.0151C23.0724 25.6492 22.5802 26.2289 22.9011 26.5531ZM23.7535 27.4104C23.7535 27.2323 22.8542 27.0313 22.7043 27.0313C22.2001 27.0313 22.2001 27.7925 22.7043 27.7925C22.8557 27.7925 23.7535 27.5906 23.7535 27.4104ZM23.9132 27.7958C23.7843 27.6681 23.0092 28.1616 22.9015 28.2697C22.5318 28.6425 23.1294 29.1174 23.437 28.806C23.5432 28.7001 24.0367 27.9184 23.9132 27.7958ZM24.6758 29.0056C24.6758 28.855 24.4754 27.9533 24.2966 27.9533C24.1184 27.9533 23.9158 28.855 23.9158 29.0056C23.9158 29.4979 24.6758 29.499 24.6758 29.0056ZM24.0488 27.4104C24.0488 27.5478 24.1588 27.6604 24.2966 27.6604C24.4348 27.6604 24.5443 27.5479 24.5443 27.4104C24.5443 27.2741 24.4333 27.1625 24.2966 27.1625C24.1602 27.1625 24.0488 27.2742 24.0488 27.4104Z" fill="white"/>
</g>
<defs>
<clipPath id="clip0_119_159">
<rect width="50" height="50" fill="white"/>
</clipPath>
</defs>
</svg>
