<svg width="15" height="15" viewBox="0 0 15 15" fill="none" xmlns="http://www.w3.org/2000/svg">
<g clip-path="url(#clip0_119_2290)">
<path d="M13.6601 13.3937C13.9972 13.3937 14.2894 13.2824 14.5378 13.0626L10.288 8.81267C10.1861 8.88568 10.0872 8.95668 9.99387 9.02419C9.67584 9.25851 9.41772 9.44135 9.21951 9.57237C9.02134 9.70369 8.75766 9.83754 8.42852 9.9742C8.09916 10.111 7.79232 10.1792 7.50768 10.1792H7.49935H7.49101C7.20634 10.1792 6.8995 10.111 6.57017 9.9742C6.24084 9.83754 5.97716 9.70369 5.77918 9.57237C5.581 9.44135 5.32302 9.25853 5.00482 9.02419C4.91615 8.95918 4.81781 8.88786 4.71149 8.81152L0.460938 13.0626C0.709279 13.2824 1.00163 13.3937 1.33878 13.3937H13.6601Z" fill="#ABABAB"/>
<path d="M0.845514 6.13605C0.52751 5.92403 0.245509 5.68122 0 5.40771V11.8736L3.7457 8.12791C2.99635 7.60475 2.03085 6.94156 0.845514 6.13605Z" fill="#ABABAB"/>
<path d="M14.165 6.13556C13.0248 6.90724 12.0558 7.57157 11.2578 8.1289L15.002 11.8733V5.40723C14.7619 5.67523 14.483 5.91788 14.165 6.13556Z" fill="#ABABAB"/>
<path d="M13.6604 1.60742H1.3392C0.909349 1.60742 0.578872 1.75258 0.347362 2.04258C0.11566 2.33273 0 2.69559 0 3.13075C0 3.48225 0.153487 3.86311 0.460326 4.27343C0.767164 4.68359 1.09366 5.00576 1.43966 5.24011C1.62934 5.37412 2.20135 5.77178 3.15569 6.43296C3.67087 6.78996 4.11888 7.10113 4.50388 7.36965C4.83204 7.5983 5.11505 7.79631 5.34871 7.96064C5.37554 7.97946 5.41772 8.00963 5.47371 8.04966C5.53404 8.09299 5.61037 8.14798 5.70455 8.21598C5.88589 8.34714 6.03655 8.45315 6.15654 8.53415C6.27636 8.61517 6.42155 8.70566 6.59186 8.80615C6.76204 8.90651 6.92256 8.98197 7.07321 9.03216C7.22389 9.08233 7.36338 9.10749 7.49171 9.10749H7.50004H7.50837C7.63667 9.10749 7.77619 9.08233 7.9269 9.03216C8.07752 8.98197 8.2379 8.90667 8.40822 8.80615C8.57837 8.70566 8.72336 8.61497 8.84357 8.53415C8.96356 8.45315 9.11422 8.34716 9.29559 8.21598C9.38957 8.14798 9.46591 8.09297 9.52623 8.0498C9.58225 8.0096 9.62441 7.97962 9.65139 7.96064C9.83342 7.83398 10.1171 7.63678 10.4985 7.37196C11.1924 6.8898 12.2144 6.18012 13.5688 5.24011C13.9761 4.9556 14.3164 4.61227 14.5899 4.2106C14.863 3.80894 14.9998 3.38761 14.9998 2.94676C14.9998 2.57843 14.8671 2.26326 14.6023 2.00075C14.3371 1.73858 14.0232 1.60742 13.6604 1.60742Z" fill="#ABABAB"/>
</g>
<defs>
<clipPath id="clip0_119_2290">
<rect width="15" height="15" fill="white"/>
</clipPath>
</defs>
</svg>
