<svg width="15" height="15" viewBox="0 0 15 15" fill="none" xmlns="http://www.w3.org/2000/svg">
<path d="M7.50195 0C5.32112 0 3.54688 1.77425 3.54688 3.95508C3.54688 6.13591 5.32112 7.91016 7.50195 7.91016C9.68278 7.91016 11.457 6.13591 11.457 3.95508C11.457 1.77425 9.68278 0 7.50195 0Z" fill="#ABABAB"/>
<path d="M12.4189 10.494C11.3361 9.39454 9.90065 8.78906 8.37695 8.78906H6.61914C5.09547 8.78906 3.65998 9.39454 2.57717 10.494C1.49966 11.5881 0.90625 13.0322 0.90625 14.5605C0.90625 14.8032 1.10301 15 1.3457 15H13.6504C13.8931 15 14.0898 14.8032 14.0898 14.5605C14.0898 13.0322 13.4964 11.5881 12.4189 10.494Z" fill="#ABABAB"/>
</svg>
